<svg width="360" height="640" viewBox="0 0 360 640" fill="none" xmlns="http://www.w3.org/2000/svg">
<rect width="360" height="640" fill="#E5E5E5"/>
<rect width="360" height="640" fill="white"/>
<path d="M111.887 328V312.176H114.032V326.248H122.028V328H111.887ZM125.902 322.351C125.902 323.744 126.191 324.818 126.767 325.574C127.344 326.33 128.186 326.708 129.294 326.708C130.17 326.708 130.87 326.533 131.394 326.181C131.926 325.829 132.285 325.383 132.472 324.844L134.247 325.35C133.52 327.266 131.869 328.225 129.294 328.225C127.497 328.225 126.127 327.689 125.184 326.619C124.248 325.548 123.78 323.957 123.78 321.846C123.78 319.839 124.248 318.301 125.184 317.23C126.127 316.159 127.471 315.624 129.215 315.624C132.787 315.624 134.572 317.777 134.572 322.082V322.351H125.902ZM132.483 320.801C132.371 319.521 132.045 318.589 131.506 318.005C130.967 317.413 130.192 317.118 129.182 317.118C128.201 317.118 127.422 317.447 126.846 318.106C126.277 318.757 125.97 319.656 125.925 320.801H132.483ZM141.827 327.91C141.161 328.09 140.479 328.18 139.783 328.18C138.166 328.18 137.357 327.263 137.357 325.428V317.32H135.954V315.849H137.436L138.031 313.131H139.379V315.849H141.625V317.32H139.379V324.99C139.379 325.574 139.472 325.986 139.66 326.226C139.854 326.458 140.188 326.574 140.659 326.574C140.929 326.574 141.318 326.521 141.827 326.417V327.91ZM145.69 313.805C145.69 314.591 145.619 315.253 145.477 315.792C145.335 316.324 145.114 316.829 144.814 317.309H143.433C144.137 316.29 144.489 315.317 144.489 314.389H143.5V312.176H145.69V313.805ZM157.37 324.642C157.37 325.788 156.936 326.671 156.067 327.292C155.206 327.914 153.997 328.225 152.44 328.225C150.928 328.225 149.76 327.978 148.936 327.483C148.12 326.982 147.588 326.203 147.341 325.147L149.127 324.799C149.299 325.451 149.655 325.93 150.194 326.237C150.733 326.536 151.482 326.686 152.44 326.686C153.466 326.686 154.214 326.529 154.686 326.214C155.165 325.9 155.405 325.428 155.405 324.799C155.405 324.32 155.24 323.931 154.911 323.631C154.581 323.332 154.05 323.085 153.316 322.89L151.867 322.508C150.707 322.209 149.879 321.917 149.385 321.632C148.899 321.34 148.517 320.988 148.24 320.577C147.963 320.165 147.824 319.66 147.824 319.061C147.824 317.952 148.217 317.11 149.003 316.534C149.797 315.95 150.95 315.658 152.462 315.658C153.803 315.658 154.866 315.894 155.652 316.365C156.445 316.837 156.947 317.593 157.157 318.634L155.337 318.858C155.225 318.319 154.922 317.908 154.428 317.623C153.941 317.331 153.286 317.185 152.462 317.185C151.549 317.185 150.875 317.324 150.441 317.601C150.007 317.878 149.79 318.297 149.79 318.858C149.79 319.203 149.879 319.487 150.059 319.712C150.239 319.937 150.505 320.127 150.856 320.285C151.208 320.442 151.95 320.659 153.08 320.936C154.151 321.206 154.922 321.456 155.394 321.688C155.865 321.913 156.236 322.164 156.505 322.441C156.782 322.718 156.996 323.04 157.146 323.407C157.295 323.766 157.37 324.178 157.37 324.642ZM173.497 313.692C171.745 313.692 170.382 314.258 169.409 315.388C168.436 316.511 167.949 318.054 167.949 320.015C167.949 321.954 168.455 323.515 169.465 324.698C170.484 325.874 171.857 326.461 173.587 326.461C175.803 326.461 177.469 325.365 178.584 323.171L180.336 324.047C179.685 325.41 178.768 326.446 177.585 327.158C176.41 327.869 175.043 328.225 173.486 328.225C171.891 328.225 170.51 327.895 169.342 327.236C168.181 326.57 167.294 325.623 166.68 324.395C166.074 323.16 165.771 321.7 165.771 320.015C165.771 317.492 166.452 315.515 167.814 314.085C169.177 312.655 171.064 311.94 173.475 311.94C175.159 311.94 176.567 312.27 177.697 312.929C178.828 313.588 179.659 314.565 180.19 315.86L178.158 316.534C177.791 315.613 177.199 314.909 176.383 314.422C175.575 313.936 174.613 313.692 173.497 313.692ZM193.049 321.913C193.049 324.039 192.581 325.623 191.646 326.664C190.71 327.704 189.351 328.225 187.569 328.225C185.794 328.225 184.454 327.686 183.548 326.607C182.642 325.522 182.189 323.957 182.189 321.913C182.189 317.72 184.005 315.624 187.636 315.624C189.493 315.624 190.859 316.137 191.735 317.163C192.611 318.181 193.049 319.764 193.049 321.913ZM190.927 321.913C190.927 320.236 190.676 319.019 190.174 318.263C189.68 317.5 188.845 317.118 187.67 317.118C186.487 317.118 185.63 317.507 185.098 318.286C184.574 319.057 184.312 320.266 184.312 321.913C184.312 323.515 184.57 324.721 185.087 325.529C185.611 326.33 186.431 326.731 187.546 326.731C188.759 326.731 189.624 326.342 190.141 325.563C190.665 324.784 190.927 323.568 190.927 321.913ZM202.651 328V320.296C202.651 319.12 202.49 318.308 202.168 317.859C201.847 317.41 201.266 317.185 200.428 317.185C199.567 317.185 198.885 317.514 198.384 318.173C197.882 318.832 197.631 319.761 197.631 320.958V328H195.621V318.443C195.621 317.028 195.599 316.163 195.554 315.849H197.463C197.47 315.886 197.478 315.987 197.485 316.152C197.493 316.317 197.5 316.507 197.508 316.725C197.523 316.934 197.538 317.335 197.553 317.926H197.586C198.021 317.065 198.519 316.466 199.08 316.129C199.642 315.792 200.327 315.624 201.135 315.624C202.056 315.624 202.782 315.807 203.314 316.174C203.853 316.541 204.227 317.125 204.437 317.926H204.471C204.89 317.11 205.395 316.522 205.987 316.163C206.586 315.804 207.308 315.624 208.154 315.624C209.382 315.624 210.273 315.957 210.827 316.624C211.389 317.29 211.669 318.383 211.669 319.903V328H209.67V320.296C209.67 319.12 209.509 318.308 209.188 317.859C208.866 317.41 208.285 317.185 207.447 317.185C206.563 317.185 205.875 317.514 205.38 318.173C204.894 318.825 204.65 319.753 204.65 320.958V328H202.651ZM225.011 321.868C225.011 326.106 223.521 328.225 220.542 328.225C218.67 328.225 217.412 327.521 216.768 326.113H216.712C216.742 326.173 216.757 326.81 216.757 328.022V332.773H214.735V318.331C214.735 317.08 214.713 316.253 214.668 315.849H216.622C216.63 315.879 216.641 315.987 216.656 316.174C216.671 316.354 216.686 316.635 216.701 317.017C216.723 317.398 216.734 317.66 216.734 317.803H216.779C217.139 317.054 217.614 316.507 218.206 316.163C218.797 315.811 219.576 315.635 220.542 315.635C222.039 315.635 223.158 316.137 223.899 317.14C224.641 318.143 225.011 319.719 225.011 321.868ZM222.889 321.913C222.889 320.221 222.66 319.012 222.204 318.286C221.747 317.559 221.021 317.196 220.025 317.196C219.224 317.196 218.595 317.365 218.138 317.702C217.689 318.039 217.345 318.566 217.105 319.285C216.873 319.996 216.757 320.925 216.757 322.07C216.757 323.665 217.011 324.84 217.521 325.597C218.03 326.353 218.857 326.731 220.002 326.731C221.006 326.731 221.736 326.364 222.192 325.63C222.657 324.889 222.889 323.65 222.889 321.913ZM230.638 328.225C229.417 328.225 228.5 327.903 227.886 327.259C227.272 326.615 226.965 325.731 226.965 324.608C226.965 323.351 227.377 322.385 228.201 321.711C229.032 321.037 230.368 320.678 232.21 320.633L234.939 320.588V319.925C234.939 318.937 234.729 318.229 234.31 317.803C233.891 317.376 233.232 317.163 232.333 317.163C231.428 317.163 230.769 317.316 230.357 317.623C229.945 317.93 229.698 318.42 229.616 319.094L227.504 318.903C227.849 316.717 229.473 315.624 232.378 315.624C233.906 315.624 235.055 315.976 235.826 316.68C236.597 317.376 236.983 318.387 236.983 319.712V324.945C236.983 325.544 237.062 325.997 237.219 326.304C237.376 326.604 237.675 326.753 238.117 326.753C238.312 326.753 238.533 326.727 238.78 326.675V327.933C238.271 328.052 237.75 328.112 237.219 328.112C236.47 328.112 235.924 327.918 235.579 327.528C235.242 327.132 235.051 326.514 235.006 325.675H234.939C234.422 326.604 233.82 327.263 233.131 327.652C232.45 328.034 231.618 328.225 230.638 328.225ZM231.098 326.708C231.839 326.708 232.498 326.54 233.075 326.203C233.651 325.866 234.104 325.406 234.434 324.822C234.771 324.23 234.939 323.624 234.939 323.002V322.003L232.727 322.048C231.776 322.063 231.053 322.16 230.559 322.34C230.072 322.52 229.698 322.797 229.436 323.171C229.174 323.545 229.043 324.036 229.043 324.642C229.043 325.301 229.219 325.81 229.571 326.169C229.93 326.529 230.439 326.708 231.098 326.708ZM240.386 328V318.679C240.386 317.825 240.363 316.882 240.318 315.849H242.228C242.287 317.226 242.317 318.054 242.317 318.331H242.362C242.684 317.29 243.055 316.579 243.474 316.197C243.893 315.815 244.485 315.624 245.249 315.624C245.518 315.624 245.791 315.661 246.068 315.736V317.589C245.799 317.514 245.439 317.477 244.99 317.477C244.152 317.477 243.512 317.84 243.07 318.566C242.628 319.285 242.407 320.318 242.407 321.666V328H240.386ZM249.55 322.351C249.55 323.744 249.838 324.818 250.415 325.574C250.991 326.33 251.833 326.708 252.941 326.708C253.817 326.708 254.517 326.533 255.042 326.181C255.573 325.829 255.932 325.383 256.12 324.844L257.894 325.35C257.168 327.266 255.517 328.225 252.941 328.225C251.145 328.225 249.774 327.689 248.831 326.619C247.895 325.548 247.427 323.957 247.427 321.846C247.427 319.839 247.895 318.301 248.831 317.23C249.774 316.159 251.118 315.624 252.863 315.624C256.434 315.624 258.22 317.777 258.22 322.082V322.351H249.55ZM256.131 320.801C256.019 319.521 255.693 318.589 255.154 318.005C254.615 317.413 253.84 317.118 252.829 317.118C251.848 317.118 251.07 317.447 250.493 318.106C249.924 318.757 249.617 319.656 249.572 320.801H256.131Z" fill="black"/>
<path d="M153.181 347.713C153.181 347.664 153.176 347.605 153.167 347.537C153.162 347.464 153.149 347.393 153.13 347.325C153.115 347.251 153.088 347.188 153.049 347.134C153.015 347.076 152.969 347.039 152.91 347.024C152.725 346.98 152.544 346.949 152.368 346.929C152.197 346.905 152.026 346.873 151.855 346.834C151.792 346.819 151.733 346.807 151.68 346.797C151.631 346.788 151.587 346.773 151.548 346.753C151.514 346.729 151.487 346.697 151.467 346.658C151.448 346.619 151.438 346.563 151.438 346.49C151.438 346.431 151.45 346.385 151.475 346.351C151.499 346.316 151.531 346.292 151.57 346.277C151.609 346.263 151.653 346.255 151.702 346.255C151.75 346.25 151.797 346.248 151.841 346.248C151.973 346.248 152.097 346.255 152.214 346.27C152.332 346.28 152.454 346.285 152.581 346.285C152.947 346.285 153.308 346.28 153.665 346.27C154.026 346.255 154.39 346.248 154.756 346.248H155.364C155.383 346.248 155.415 346.25 155.459 346.255C155.508 346.255 155.559 346.258 155.613 346.263C155.671 346.268 155.723 346.272 155.767 346.277C155.815 346.277 155.85 346.28 155.869 346.285C155.908 346.294 155.947 346.319 155.986 346.358C156.03 346.392 156.052 346.429 156.052 346.468C156.052 346.521 156.033 346.565 155.994 346.6C155.959 346.629 155.918 346.663 155.869 346.702C155.825 346.741 155.771 346.768 155.708 346.783C155.645 346.792 155.579 346.797 155.51 346.797C155.447 346.797 155.383 346.797 155.32 346.797C155.256 346.792 155.193 346.79 155.129 346.79H155.042C154.88 346.814 154.722 346.873 154.565 346.966C154.414 347.054 154.282 347.161 154.17 347.288C154.097 347.391 154.026 347.513 153.958 347.654C153.894 347.791 153.833 347.935 153.774 348.086C153.716 348.233 153.662 348.377 153.613 348.519C153.569 348.66 153.528 348.785 153.489 348.892C153.406 349.156 153.308 349.415 153.196 349.668C153.088 349.922 152.993 350.181 152.91 350.445C152.861 350.582 152.815 350.721 152.771 350.862C152.732 351.004 152.686 351.138 152.632 351.265C152.622 351.28 152.61 351.307 152.595 351.346C152.581 351.38 152.563 351.417 152.544 351.456C152.524 351.495 152.505 351.531 152.485 351.565C152.471 351.595 152.458 351.614 152.449 351.624C152.444 351.629 152.434 351.641 152.419 351.661C152.405 351.68 152.388 351.7 152.368 351.719C152.354 351.739 152.339 351.758 152.324 351.778C152.314 351.792 152.31 351.802 152.31 351.807C152.305 351.812 152.3 351.827 152.295 351.851C152.29 351.875 152.285 351.902 152.28 351.932C152.275 351.956 152.271 351.98 152.266 352.005C152.261 352.024 152.258 352.037 152.258 352.042C152.258 352.046 152.251 352.066 152.236 352.1C152.222 352.129 152.205 352.164 152.185 352.203C152.17 352.237 152.156 352.271 152.141 352.305C152.131 352.334 152.126 352.354 152.126 352.364C152.122 352.369 152.117 352.386 152.112 352.415C152.107 352.439 152.102 352.466 152.097 352.496C152.097 352.525 152.095 352.554 152.09 352.583C152.09 352.613 152.09 352.63 152.09 352.635C152.056 352.752 152.009 352.862 151.951 352.964C151.892 353.062 151.843 353.165 151.804 353.272C151.731 353.472 151.663 353.658 151.599 353.829C151.541 353.995 151.458 354.178 151.35 354.378L151.321 354.393C151.311 354.402 151.306 354.407 151.306 354.407L151.299 354.415V354.378C151.299 354.222 151.309 354.083 151.328 353.96C151.353 353.833 151.379 353.714 151.409 353.602C151.443 353.484 151.479 353.37 151.519 353.257C151.558 353.14 151.592 353.011 151.621 352.869C151.65 352.688 151.685 352.513 151.724 352.342C151.768 352.166 151.812 351.988 151.855 351.807C151.855 351.802 151.858 351.79 151.863 351.771C151.873 351.751 151.88 351.729 151.885 351.705C151.895 351.68 151.904 351.658 151.914 351.639C151.924 351.614 151.934 351.597 151.943 351.587C151.943 351.573 151.956 351.548 151.98 351.514C152.009 351.48 152.029 351.458 152.039 351.448C152.039 351.438 152.043 351.412 152.053 351.368C152.068 351.319 152.08 351.285 152.09 351.265C152.09 351.25 152.092 351.221 152.097 351.177C152.107 351.133 152.117 351.084 152.126 351.031C152.136 350.977 152.146 350.928 152.156 350.884C152.166 350.84 152.173 350.811 152.178 350.796C152.178 350.792 152.188 350.762 152.207 350.708C152.231 350.65 152.249 350.606 152.258 350.577C152.258 350.572 152.263 350.562 152.273 350.547C152.283 350.528 152.292 350.508 152.302 350.489C152.317 350.469 152.329 350.45 152.339 350.43C152.349 350.411 152.356 350.398 152.361 350.394C152.361 350.379 152.361 350.35 152.361 350.306C152.366 350.262 152.371 350.215 152.375 350.167C152.38 350.113 152.385 350.064 152.39 350.02C152.395 349.976 152.402 349.949 152.412 349.939C152.412 349.93 152.419 349.908 152.434 349.874C152.454 349.839 152.473 349.803 152.493 349.764C152.512 349.72 152.529 349.681 152.544 349.646C152.563 349.607 152.576 349.581 152.581 349.566C152.59 349.542 152.607 349.502 152.632 349.449C152.656 349.39 152.673 349.351 152.683 349.332C152.683 349.332 152.683 349.319 152.683 349.295C152.688 349.266 152.693 349.236 152.698 349.207C152.703 349.178 152.708 349.151 152.712 349.126C152.717 349.097 152.722 349.08 152.727 349.075C152.732 349.056 152.747 349.004 152.771 348.921C152.795 348.838 152.822 348.753 152.852 348.665C152.886 348.572 152.915 348.487 152.939 348.409C152.969 348.326 152.988 348.274 152.998 348.255C152.998 348.25 152.998 348.233 152.998 348.204C153.003 348.174 153.008 348.145 153.013 348.116C153.018 348.082 153.022 348.052 153.027 348.028C153.037 347.999 153.044 347.984 153.049 347.984C153.059 347.925 153.083 347.879 153.123 347.845C153.162 347.806 153.181 347.762 153.181 347.713ZM149.519 355.821C149.5 355.767 149.465 355.669 149.417 355.528C149.373 355.386 149.324 355.235 149.27 355.074C149.216 354.913 149.165 354.761 149.116 354.62C149.067 354.478 149.033 354.38 149.014 354.327C149.014 354.317 149.011 354.302 149.006 354.283C149.006 354.258 149.004 354.234 148.999 354.209C148.994 354.185 148.989 354.163 148.984 354.144C148.984 354.119 148.982 354.104 148.977 354.1C148.967 354.085 148.948 354.051 148.918 353.997C148.894 353.938 148.865 353.88 148.831 353.821C148.801 353.758 148.772 353.702 148.743 353.653C148.718 353.599 148.701 353.567 148.691 353.558C148.691 353.543 148.687 353.519 148.677 353.484C148.667 353.445 148.657 353.406 148.647 353.367C148.638 353.323 148.628 353.284 148.618 353.25C148.613 353.216 148.608 353.194 148.604 353.184C148.525 352.955 148.44 352.728 148.347 352.503C148.259 352.273 148.179 352.042 148.105 351.807C148.105 351.802 148.103 351.788 148.098 351.763C148.093 351.734 148.088 351.705 148.083 351.675C148.079 351.641 148.074 351.612 148.069 351.587C148.064 351.558 148.059 351.541 148.054 351.536C148 351.238 147.91 350.933 147.783 350.621C147.656 350.303 147.537 349.998 147.424 349.705C147.415 349.705 147.405 349.681 147.395 349.632C147.39 349.583 147.388 349.546 147.388 349.522C147.339 349.327 147.283 349.151 147.219 348.995C147.161 348.838 147.095 348.653 147.021 348.438C146.973 348.306 146.926 348.155 146.882 347.984C146.843 347.813 146.792 347.649 146.729 347.493C146.665 347.337 146.582 347.203 146.479 347.09C146.377 346.978 146.238 346.91 146.062 346.885C146.047 346.885 146.016 346.883 145.967 346.878C145.918 346.873 145.864 346.868 145.806 346.863C145.752 346.854 145.701 346.846 145.652 346.841C145.603 346.836 145.571 346.834 145.557 346.834C145.488 346.829 145.417 346.805 145.344 346.761C145.271 346.712 145.234 346.646 145.234 346.563C145.234 346.436 145.276 346.353 145.359 346.314C145.447 346.27 145.549 346.248 145.667 346.248H145.74C145.745 346.248 145.754 346.25 145.769 346.255C145.789 346.26 145.808 346.265 145.828 346.27C145.847 346.27 145.867 346.272 145.886 346.277C145.906 346.282 145.918 346.285 145.923 346.285H146.465C146.475 346.285 146.497 346.292 146.531 346.307C146.57 346.321 146.594 346.329 146.604 346.329H146.75H146.919C146.934 346.329 146.97 346.326 147.029 346.321C147.092 346.316 147.156 346.312 147.219 346.307C147.288 346.302 147.351 346.297 147.41 346.292C147.473 346.287 147.512 346.285 147.527 346.285H149.014C149.111 346.265 149.197 346.255 149.27 346.255C149.343 346.25 149.429 346.248 149.526 346.248C149.575 346.248 149.626 346.25 149.68 346.255C149.739 346.255 149.792 346.265 149.841 346.285C149.895 346.299 149.939 346.326 149.973 346.365C150.007 346.399 150.024 346.451 150.024 346.519C150.024 346.578 150.012 346.624 149.988 346.658C149.963 346.688 149.929 346.712 149.885 346.731C149.846 346.746 149.802 346.758 149.753 346.768C149.705 346.773 149.658 346.78 149.614 346.79C149.458 346.839 149.307 346.88 149.16 346.915C149.019 346.944 148.862 346.963 148.691 346.973C148.623 347.012 148.574 347.071 148.545 347.149C148.521 347.227 148.508 347.308 148.508 347.391C148.508 347.444 148.518 347.5 148.538 347.559C148.562 347.613 148.589 347.669 148.618 347.728C148.647 347.781 148.674 347.837 148.699 347.896C148.723 347.955 148.738 348.016 148.743 348.079V348.138V348.299C148.752 348.309 148.777 348.333 148.816 348.372C148.855 348.406 148.875 348.428 148.875 348.438C148.884 348.438 148.894 348.453 148.904 348.482C148.918 348.506 148.926 348.523 148.926 348.533C148.931 348.548 148.94 348.58 148.955 348.628C148.97 348.672 148.984 348.721 148.999 348.775C149.014 348.829 149.026 348.88 149.036 348.929C149.05 348.978 149.06 349.014 149.065 349.039C149.075 349.058 149.089 349.107 149.109 349.185C149.128 349.263 149.148 349.349 149.167 349.441C149.187 349.529 149.204 349.612 149.219 349.69C149.233 349.769 149.243 349.817 149.248 349.837C149.248 349.852 149.258 349.878 149.277 349.917C149.297 349.952 149.316 349.991 149.336 350.035C149.36 350.074 149.38 350.113 149.395 350.152C149.414 350.186 149.426 350.206 149.431 350.21C149.451 350.264 149.473 350.328 149.497 350.401C149.526 350.469 149.553 350.542 149.578 350.621C149.602 350.694 149.622 350.77 149.636 350.848C149.656 350.921 149.666 350.987 149.666 351.045C149.666 351.055 149.663 351.07 149.658 351.089C149.653 351.104 149.651 351.119 149.651 351.133C149.705 351.221 149.746 351.302 149.775 351.375C149.805 351.443 149.829 351.514 149.849 351.587C149.873 351.656 149.893 351.727 149.907 351.8C149.927 351.873 149.949 351.954 149.973 352.042C149.983 352.066 150.002 352.125 150.032 352.217C150.066 352.31 150.1 352.413 150.134 352.525C150.173 352.632 150.208 352.735 150.237 352.833C150.266 352.925 150.286 352.981 150.295 353.001C150.3 353.016 150.31 353.052 150.325 353.111C150.339 353.169 150.354 353.233 150.369 353.301C150.383 353.365 150.396 353.426 150.405 353.484C150.42 353.543 150.432 353.58 150.442 353.594C150.471 353.677 150.515 353.755 150.574 353.829C150.632 353.897 150.662 353.978 150.662 354.07C150.662 354.114 150.684 354.195 150.728 354.312C150.776 354.429 150.833 354.583 150.896 354.773C150.93 354.876 150.952 354.952 150.962 355C150.977 355.049 150.984 355.125 150.984 355.228C150.984 355.364 150.962 355.494 150.918 355.616C150.879 355.738 150.837 355.867 150.793 356.004C150.793 356.028 150.784 356.075 150.764 356.143C150.75 356.211 150.732 356.285 150.713 356.363C150.693 356.436 150.674 356.507 150.654 356.575C150.64 356.639 150.63 356.678 150.625 356.692C150.61 356.741 150.591 356.802 150.566 356.875C150.547 356.949 150.52 357.017 150.486 357.081C150.457 357.149 150.417 357.208 150.369 357.256C150.325 357.305 150.271 357.33 150.208 357.33C150.149 357.33 150.103 357.305 150.068 357.256C150.039 357.212 150.015 357.161 149.995 357.103C149.98 357.044 149.968 356.985 149.958 356.927C149.954 356.863 149.946 356.817 149.937 356.788C149.937 356.783 149.932 356.771 149.922 356.751C149.917 356.731 149.907 356.712 149.893 356.692C149.883 356.673 149.871 356.656 149.856 356.641C149.846 356.622 149.839 356.609 149.834 356.604C149.834 356.59 149.822 356.553 149.797 356.495C149.778 356.436 149.756 356.373 149.731 356.304C149.707 356.236 149.683 356.172 149.658 356.114C149.634 356.055 149.619 356.019 149.614 356.004C149.604 355.994 149.587 355.967 149.563 355.923C149.539 355.875 149.524 355.84 149.519 355.821ZM156.133 351.214V350.774C156.196 350.618 156.248 350.462 156.287 350.306C156.326 350.145 156.365 349.986 156.404 349.83L156.55 349.676C156.541 349.529 156.562 349.385 156.616 349.244C156.675 349.097 156.748 348.956 156.836 348.819C156.929 348.682 157.026 348.55 157.129 348.423C157.231 348.296 157.327 348.182 157.415 348.079C157.424 348.069 157.432 348.055 157.437 348.035C157.446 348.016 157.451 348.001 157.451 347.991C157.48 347.928 157.51 347.881 157.539 347.852C157.568 347.823 157.598 347.801 157.627 347.786C157.656 347.767 157.688 347.747 157.722 347.728C157.756 347.703 157.791 347.669 157.825 347.625C157.917 347.508 158.027 347.391 158.154 347.273C158.286 347.156 158.42 347.056 158.557 346.973C158.562 346.968 158.579 346.961 158.608 346.951C158.638 346.941 158.667 346.929 158.696 346.915C158.73 346.9 158.76 346.885 158.784 346.871C158.813 346.856 158.833 346.844 158.843 346.834C158.853 346.834 158.875 346.814 158.909 346.775C158.948 346.736 158.97 346.712 158.975 346.702C158.984 346.692 159.006 346.678 159.041 346.658C159.075 346.639 159.094 346.629 159.099 346.629C159.25 346.565 159.414 346.504 159.59 346.446C159.771 346.387 159.932 346.336 160.073 346.292C160.19 346.253 160.305 346.226 160.417 346.211C160.53 346.197 160.645 346.163 160.762 346.109H162.043C162.053 346.124 162.087 346.136 162.146 346.146C162.209 346.155 162.253 346.16 162.278 346.16H163.223C163.301 346.214 163.381 346.255 163.464 346.285C163.552 346.309 163.638 346.329 163.721 346.343C163.809 346.358 163.894 346.373 163.977 346.387C164.065 346.397 164.153 346.417 164.241 346.446C164.319 346.465 164.39 346.497 164.453 346.541C164.521 346.58 164.585 346.624 164.644 346.673C164.707 346.722 164.766 346.773 164.819 346.827C164.878 346.88 164.941 346.929 165.01 346.973C165.015 346.983 165.034 346.995 165.068 347.01C165.107 347.02 165.132 347.024 165.142 347.024C165.186 347.044 165.227 347.068 165.266 347.098C165.31 347.122 165.352 347.149 165.391 347.178C165.43 347.203 165.471 347.225 165.515 347.244C165.559 347.259 165.608 347.266 165.662 347.266C165.769 347.266 165.845 347.234 165.889 347.171C165.938 347.107 165.977 347.037 166.006 346.958C166.035 346.88 166.067 346.81 166.101 346.746C166.135 346.683 166.196 346.651 166.284 346.651C166.294 346.651 166.304 346.651 166.313 346.651C166.328 346.651 166.34 346.656 166.35 346.666L166.533 346.885V347.574C166.47 347.715 166.44 347.852 166.445 347.984C166.45 348.111 166.448 348.252 166.438 348.409C166.433 348.414 166.428 348.431 166.423 348.46C166.418 348.484 166.414 348.511 166.409 348.541C166.404 348.57 166.399 348.599 166.394 348.628C166.394 348.653 166.394 348.667 166.394 348.672C166.394 348.677 166.389 348.702 166.379 348.746C166.375 348.785 166.372 348.816 166.372 348.841C166.372 348.938 166.382 349.034 166.401 349.126C166.426 349.219 166.438 349.312 166.438 349.405C166.438 349.454 166.433 349.529 166.423 349.632C166.414 349.734 166.394 349.837 166.365 349.939C166.335 350.042 166.294 350.132 166.24 350.21C166.191 350.289 166.125 350.328 166.042 350.328H166.028C165.984 350.289 165.95 350.254 165.925 350.225C165.901 350.196 165.881 350.167 165.867 350.137C165.857 350.108 165.847 350.076 165.837 350.042C165.828 350.003 165.813 349.959 165.793 349.91L165.786 349.903C165.781 349.898 165.776 349.896 165.771 349.896C165.771 349.896 165.769 349.893 165.764 349.888C165.754 349.883 165.747 349.876 165.742 349.866C165.737 349.856 165.728 349.842 165.713 349.822C165.703 349.803 165.698 349.788 165.698 349.778C165.693 349.754 165.686 349.712 165.676 349.654C165.671 349.595 165.664 349.537 165.654 349.478C165.645 349.415 165.635 349.356 165.625 349.302C165.62 349.244 165.615 349.202 165.61 349.178C165.586 349.163 165.557 349.126 165.522 349.068C165.488 349.009 165.452 348.943 165.413 348.87C165.374 348.797 165.334 348.726 165.295 348.658C165.256 348.584 165.222 348.531 165.193 348.497C165.125 348.414 165.051 348.323 164.973 348.226C164.9 348.128 164.822 348.033 164.739 347.94C164.661 347.842 164.578 347.75 164.49 347.662C164.407 347.574 164.324 347.5 164.241 347.442C164.236 347.437 164.202 347.417 164.138 347.383C164.075 347.344 164.001 347.3 163.918 347.251C163.835 347.198 163.75 347.146 163.662 347.098C163.579 347.044 163.511 347.002 163.457 346.973C163.452 346.968 163.435 346.961 163.406 346.951L163.362 346.937H163.098H162.988C162.979 346.932 162.966 346.924 162.952 346.915C162.927 346.91 162.91 346.9 162.9 346.885C162.778 346.836 162.656 346.795 162.534 346.761C162.417 346.722 162.29 346.702 162.153 346.702H161.992C161.987 346.707 161.973 346.714 161.948 346.724C161.929 346.734 161.904 346.744 161.875 346.753C161.851 346.763 161.826 346.773 161.802 346.783C161.782 346.788 161.768 346.79 161.758 346.79C161.655 346.829 161.548 346.854 161.436 346.863C161.328 346.868 161.223 346.893 161.121 346.937C160.823 347.059 160.542 347.203 160.278 347.369C160.02 347.535 159.766 347.728 159.517 347.947C159.507 347.957 159.485 347.979 159.451 348.013C159.421 348.047 159.387 348.086 159.348 348.13C159.314 348.169 159.282 348.206 159.253 348.24C159.224 348.274 159.207 348.299 159.202 348.313L159.15 348.365C159.146 348.37 159.136 348.392 159.121 348.431C159.111 348.47 159.099 348.514 159.084 348.562C159.07 348.606 159.055 348.648 159.041 348.687C159.026 348.726 159.016 348.748 159.011 348.753C159.011 348.768 158.989 348.804 158.945 348.863C158.901 348.917 158.867 348.958 158.843 348.987C158.779 349.056 158.728 349.134 158.689 349.222C158.655 349.305 158.611 349.383 158.557 349.456C158.538 349.49 158.499 349.534 158.44 349.588C158.381 349.637 158.347 349.683 158.337 349.727C158.328 349.737 158.323 349.771 158.323 349.83C158.323 349.869 158.325 349.913 158.33 349.961C158.335 350.01 158.337 350.04 158.337 350.049C158.337 350.059 158.328 350.083 158.308 350.123C158.293 350.162 158.286 350.186 158.286 350.196C158.262 350.367 158.247 350.547 158.242 350.738C158.237 350.928 158.22 351.109 158.191 351.28C158.186 351.294 158.176 351.321 158.162 351.36C158.152 351.399 158.137 351.443 158.118 351.492C158.103 351.536 158.088 351.578 158.074 351.617C158.064 351.656 158.057 351.683 158.052 351.697V351.771V351.88C158.052 351.885 158.054 351.897 158.059 351.917C158.064 351.932 158.069 351.949 158.074 351.968C158.083 351.988 158.091 352.007 158.096 352.027C158.101 352.046 158.103 352.059 158.103 352.063V352.51C158.113 352.564 158.14 352.645 158.184 352.752C158.232 352.859 158.267 352.95 158.286 353.023C158.311 353.13 158.323 353.238 158.323 353.345C158.328 353.453 158.345 353.56 158.374 353.667C158.418 353.824 158.484 353.965 158.572 354.092C158.665 354.219 158.755 354.349 158.843 354.48C158.911 354.603 158.977 354.729 159.041 354.861C159.109 354.993 159.189 355.11 159.282 355.213C159.297 355.228 159.321 355.252 159.355 355.286C159.39 355.32 159.421 355.354 159.451 355.389C159.485 355.423 159.517 355.455 159.546 355.484C159.575 355.513 159.595 355.535 159.604 355.55C159.619 355.555 159.646 355.572 159.685 355.601C159.724 355.63 159.766 355.665 159.81 355.704C159.858 355.738 159.902 355.772 159.941 355.806C159.985 355.835 160.012 355.855 160.022 355.865C160.139 355.962 160.276 356.062 160.432 356.165C160.588 356.263 160.74 356.329 160.886 356.363C160.906 356.363 160.95 356.368 161.018 356.377C161.091 356.387 161.169 356.397 161.252 356.407C161.34 356.417 161.418 356.426 161.487 356.436C161.56 356.441 161.606 356.443 161.626 356.443C161.782 356.468 161.931 356.502 162.073 356.546C162.219 356.585 162.373 356.604 162.534 356.604C162.617 356.604 162.693 356.597 162.761 356.583C162.83 356.568 162.896 356.548 162.959 356.524C163.022 356.5 163.086 356.475 163.149 356.451C163.213 356.421 163.284 356.392 163.362 356.363C163.381 356.363 163.428 356.358 163.501 356.348C163.574 356.333 163.621 356.321 163.64 356.312C163.665 356.312 163.701 356.307 163.75 356.297C163.799 356.287 163.823 356.275 163.823 356.26C163.843 356.25 163.87 356.231 163.904 356.202C163.938 356.172 163.972 356.141 164.006 356.106C164.041 356.072 164.07 356.041 164.094 356.011C164.124 355.982 164.141 355.962 164.146 355.953C164.15 355.948 164.155 355.928 164.16 355.894C164.165 355.855 164.167 355.816 164.167 355.777C164.172 355.733 164.177 355.694 164.182 355.66C164.187 355.621 164.192 355.596 164.197 355.586C164.197 355.577 164.204 355.555 164.219 355.521C164.233 355.481 164.241 355.457 164.241 355.447V355.264C164.241 355.191 164.238 355.125 164.233 355.066C164.233 355.003 164.221 354.93 164.197 354.847V354.283C164.197 354.058 164.204 353.831 164.219 353.602C164.233 353.372 164.241 353.147 164.241 352.928C164.241 352.82 164.219 352.745 164.175 352.701C164.136 352.657 164.087 352.627 164.028 352.613C163.97 352.593 163.904 352.576 163.831 352.562C163.762 352.547 163.699 352.518 163.64 352.474C163.611 352.479 163.564 352.481 163.501 352.481C163.438 352.481 163.369 352.481 163.296 352.481C163.223 352.481 163.152 352.481 163.083 352.481C163.02 352.481 162.976 352.479 162.952 352.474C162.908 352.474 162.844 352.464 162.761 352.444C162.683 352.425 162.627 352.393 162.593 352.349C162.583 352.334 162.573 352.317 162.563 352.298C162.554 352.278 162.544 352.259 162.534 352.239C162.52 352.22 162.507 352.195 162.498 352.166C162.507 352.083 162.542 352 162.6 351.917C162.664 351.829 162.732 351.773 162.805 351.749H163.691C163.711 351.749 163.762 351.746 163.845 351.741C163.933 351.736 164.026 351.731 164.124 351.727C164.221 351.717 164.312 351.709 164.395 351.705C164.482 351.7 164.539 351.697 164.563 351.697C164.583 351.697 164.612 351.7 164.651 351.705C164.69 351.709 164.731 351.717 164.775 351.727C164.819 351.731 164.861 351.741 164.9 351.756C164.944 351.766 164.98 351.778 165.01 351.792C165.044 351.792 165.1 351.795 165.178 351.8C165.261 351.8 165.349 351.802 165.442 351.807C165.535 351.812 165.623 351.817 165.706 351.822C165.789 351.827 165.847 351.829 165.881 351.829H165.969C166.096 351.829 166.226 351.824 166.357 351.814C166.489 351.8 166.626 351.792 166.768 351.792H167.009C167.122 351.792 167.227 351.805 167.324 351.829C167.427 351.854 167.478 351.912 167.478 352.005C167.478 352.117 167.461 352.208 167.427 352.276C167.397 352.344 167.354 352.4 167.295 352.444C167.241 352.483 167.175 352.51 167.097 352.525C167.024 352.54 166.946 352.547 166.863 352.547C166.78 352.547 166.694 352.542 166.606 352.532C166.519 352.522 166.433 352.515 166.35 352.51C166.321 352.525 166.289 352.559 166.255 352.613C166.221 352.667 166.189 352.725 166.16 352.789C166.13 352.852 166.106 352.916 166.086 352.979C166.072 353.038 166.064 353.082 166.064 353.111V354.217C166.045 354.256 166.033 354.29 166.028 354.319C166.028 354.344 166.028 354.368 166.028 354.393V354.539C166.028 354.71 166.03 354.876 166.035 355.037C166.045 355.198 166.055 355.369 166.064 355.55V355.557C166.064 355.577 166.069 355.601 166.079 355.63C166.089 355.66 166.101 355.677 166.116 355.682C166.125 355.691 166.162 355.701 166.226 355.711C166.289 355.716 166.331 355.723 166.35 355.733C166.389 355.752 166.428 355.782 166.467 355.821C166.511 355.86 166.533 355.904 166.533 355.953C166.533 356.006 166.511 356.053 166.467 356.092C166.428 356.126 166.389 356.158 166.35 356.187C166.257 356.25 166.143 356.314 166.006 356.377C165.869 356.436 165.754 356.492 165.662 356.546C165.662 356.556 165.652 356.565 165.632 356.575L165.61 356.597C165.601 356.602 165.583 356.609 165.559 356.619C165.54 356.629 165.525 356.634 165.515 356.634H165.288C165.093 356.683 164.9 356.744 164.709 356.817C164.524 356.885 164.336 356.934 164.146 356.963C164.131 356.968 164.102 356.973 164.058 356.978C164.014 356.983 163.965 356.988 163.911 356.993C163.862 356.993 163.816 356.995 163.772 357C163.728 357 163.701 357 163.691 357C163.682 357 163.665 357.005 163.64 357.015C163.616 357.029 163.599 357.042 163.589 357.051H162.988C162.91 357.115 162.815 357.146 162.703 357.146C162.664 357.146 162.625 357.137 162.585 357.117C162.551 357.103 162.515 357.095 162.476 357.095C162.358 357.095 162.244 357.103 162.131 357.117C162.024 357.137 161.912 357.146 161.794 357.146C161.633 357.146 161.475 357.132 161.318 357.103C161.167 357.073 161.013 357.056 160.857 357.051H160.344C160.339 357.051 160.325 357.049 160.3 357.044C160.281 357.044 160.259 357.042 160.234 357.037C160.21 357.032 160.186 357.024 160.161 357.015C160.142 357.01 160.129 357.005 160.125 357C160.1 356.995 160.054 356.983 159.985 356.963C159.922 356.944 159.851 356.922 159.773 356.897C159.695 356.868 159.622 356.844 159.553 356.824C159.485 356.8 159.441 356.785 159.421 356.78C159.412 356.78 159.385 356.775 159.341 356.766C159.297 356.751 159.263 356.739 159.238 356.729C159.102 356.7 158.965 356.648 158.828 356.575C158.696 356.497 158.579 356.409 158.477 356.312C158.472 356.307 158.459 356.297 158.44 356.282C158.42 356.268 158.398 356.25 158.374 356.231C158.354 356.211 158.335 356.194 158.315 356.18C158.301 356.16 158.291 356.146 158.286 356.136C158.281 356.131 158.252 356.116 158.198 356.092C158.145 356.067 158.113 356.055 158.103 356.055C158.02 356.001 157.944 355.938 157.876 355.865C157.812 355.792 157.749 355.716 157.686 355.638C157.642 355.574 157.593 355.511 157.539 355.447C157.485 355.379 157.427 355.318 157.363 355.264C157.354 355.259 157.341 355.252 157.327 355.242C157.297 355.223 157.278 355.213 157.268 355.213C157.249 355.198 157.236 355.186 157.231 355.176C157.227 355.167 157.224 355.157 157.224 355.147C157.224 355.132 157.222 355.118 157.217 355.103C157.212 355.083 157.2 355.059 157.18 355.03C157.083 354.864 156.98 354.703 156.873 354.546C156.77 354.39 156.677 354.219 156.594 354.034C156.511 353.848 156.445 353.67 156.396 353.499C156.348 353.323 156.309 353.15 156.279 352.979C156.255 352.803 156.235 352.627 156.221 352.452C156.211 352.271 156.199 352.081 156.184 351.88C156.184 351.875 156.182 351.863 156.177 351.844C156.172 351.819 156.165 351.795 156.155 351.771C156.15 351.741 156.145 351.717 156.14 351.697C156.135 351.673 156.133 351.656 156.133 351.646V351.214ZM171.279 352.825C171.411 352.845 171.553 352.862 171.704 352.876C171.855 352.886 172.007 352.894 172.158 352.898C172.314 352.903 172.466 352.908 172.612 352.913C172.764 352.913 172.903 352.913 173.03 352.913H173.176C173.25 352.913 173.311 352.903 173.359 352.884C173.408 352.859 173.433 352.803 173.433 352.715C173.433 352.618 173.408 352.522 173.359 352.43C173.315 352.337 173.279 352.244 173.25 352.151C173.196 351.966 173.145 351.778 173.096 351.587C173.052 351.397 172.996 351.216 172.927 351.045C172.927 351.036 172.913 351.006 172.883 350.958C172.854 350.904 172.837 350.872 172.832 350.862C172.827 350.848 172.82 350.818 172.81 350.774C172.805 350.73 172.798 350.682 172.788 350.628C172.778 350.574 172.769 350.525 172.759 350.481C172.754 350.438 172.749 350.408 172.744 350.394C172.744 350.389 172.737 350.369 172.722 350.335C172.708 350.296 172.688 350.254 172.664 350.21C172.644 350.162 172.625 350.113 172.605 350.064C172.585 350.015 172.571 349.976 172.561 349.947C172.561 349.947 172.556 349.937 172.546 349.917C172.537 349.898 172.527 349.878 172.517 349.859C172.507 349.834 172.498 349.815 172.488 349.8C172.478 349.781 172.473 349.769 172.473 349.764C172.449 349.72 172.432 349.671 172.422 349.617C172.412 349.563 172.4 349.512 172.385 349.463C172.375 349.415 172.361 349.368 172.341 349.324C172.322 349.28 172.292 349.244 172.253 349.214H172.217C172.148 349.214 172.09 349.271 172.041 349.383C171.997 349.495 171.958 349.622 171.924 349.764C171.89 349.905 171.86 350.044 171.836 350.181C171.816 350.313 171.799 350.401 171.785 350.445C171.775 350.474 171.76 350.523 171.741 350.591C171.721 350.66 171.707 350.701 171.697 350.716C171.643 350.926 171.584 351.136 171.521 351.346C171.462 351.551 171.411 351.758 171.367 351.968C171.367 351.973 171.365 351.993 171.36 352.027C171.36 352.056 171.357 352.09 171.353 352.129C171.348 352.164 171.343 352.198 171.338 352.232C171.333 352.261 171.331 352.281 171.331 352.291C171.316 352.33 171.299 352.359 171.279 352.378C171.265 352.398 171.25 352.42 171.235 352.444C171.221 352.464 171.208 352.488 171.199 352.518C171.189 352.542 171.184 352.576 171.184 352.62V352.671C171.184 352.71 171.189 352.745 171.199 352.774C171.208 352.798 171.235 352.815 171.279 352.825ZM167.712 356.839C167.712 356.8 167.727 356.758 167.756 356.714C167.786 356.67 167.815 356.639 167.844 356.619C167.854 356.619 167.891 356.617 167.954 356.612C168.018 356.602 168.059 356.592 168.079 356.583C168.196 356.548 168.303 356.507 168.401 356.458C168.499 356.404 168.601 356.351 168.708 356.297C168.816 356.253 168.909 356.219 168.987 356.194C169.065 356.17 169.133 356.141 169.192 356.106C169.255 356.072 169.314 356.026 169.368 355.967C169.426 355.909 169.485 355.826 169.543 355.718C169.578 355.655 169.597 355.574 169.602 355.477C169.612 355.379 169.622 355.303 169.631 355.25C169.631 355.245 169.639 355.232 169.653 355.213C169.673 355.188 169.683 355.174 169.683 355.169C169.688 355.149 169.695 355.123 169.705 355.088C169.719 355.054 169.727 355.032 169.727 355.022C169.727 355.018 169.727 355 169.727 354.971C169.731 354.942 169.736 354.913 169.741 354.883C169.746 354.854 169.751 354.827 169.756 354.803C169.761 354.773 169.763 354.756 169.763 354.751C169.768 354.742 169.775 354.729 169.785 354.715C169.79 354.705 169.795 354.695 169.8 354.686C169.805 354.671 169.81 354.659 169.814 354.649C169.844 354.6 169.875 354.537 169.91 354.458C169.949 354.38 169.985 354.297 170.02 354.209C170.054 354.122 170.085 354.039 170.115 353.96C170.144 353.877 170.166 353.807 170.181 353.748C170.215 353.602 170.259 353.455 170.312 353.309C170.371 353.162 170.422 353.016 170.466 352.869C170.486 352.771 170.505 352.667 170.525 352.554C170.544 352.442 170.566 352.337 170.591 352.239C170.601 352.225 170.615 352.188 170.635 352.129C170.654 352.066 170.669 352.024 170.679 352.005C170.684 351.995 170.701 351.973 170.73 351.939C170.759 351.9 170.774 351.875 170.774 351.866C170.779 351.861 170.781 351.849 170.781 351.829C170.786 351.805 170.791 351.78 170.796 351.756C170.801 351.727 170.803 351.702 170.803 351.683C170.808 351.658 170.811 351.644 170.811 351.639C170.82 351.619 170.83 351.59 170.84 351.551C170.854 351.507 170.867 351.465 170.876 351.426C170.886 351.387 170.894 351.353 170.898 351.324C170.908 351.29 170.913 351.27 170.913 351.265C170.913 351.26 170.92 351.243 170.935 351.214C170.95 351.18 170.964 351.146 170.979 351.111C170.994 351.072 171.006 351.038 171.016 351.009C171.03 350.975 171.04 350.953 171.045 350.943C171.055 350.933 171.069 350.901 171.089 350.848C171.108 350.794 171.128 350.738 171.147 350.679C171.167 350.616 171.184 350.557 171.199 350.503C171.218 350.445 171.228 350.408 171.228 350.394C171.248 350.345 171.267 350.281 171.287 350.203C171.311 350.125 171.338 350.047 171.367 349.969C171.396 349.886 171.431 349.81 171.47 349.742C171.509 349.668 171.553 349.615 171.602 349.581C171.621 349.458 171.653 349.344 171.697 349.236C171.741 349.124 171.787 349.017 171.836 348.914C171.885 348.807 171.926 348.699 171.96 348.592C172 348.479 172.019 348.362 172.019 348.24C172.019 348.138 172.002 348.057 171.968 347.999C171.938 347.94 171.904 347.894 171.865 347.859C171.831 347.82 171.797 347.784 171.763 347.75C171.733 347.715 171.719 347.669 171.719 347.61C171.719 347.601 171.721 347.586 171.726 347.566C171.731 347.542 171.733 347.525 171.733 347.515C171.802 347.476 171.88 347.442 171.968 347.413C172.056 347.383 172.141 347.352 172.224 347.317C172.312 347.278 172.39 347.232 172.458 347.178C172.527 347.12 172.573 347.046 172.598 346.958C172.603 346.949 172.612 346.922 172.627 346.878C172.642 346.834 172.656 346.788 172.671 346.739C172.686 346.69 172.7 346.644 172.715 346.6C172.729 346.556 172.739 346.529 172.744 346.519C172.754 346.475 172.773 346.431 172.803 346.387C172.837 346.343 172.878 346.321 172.927 346.321C172.932 346.321 172.935 346.324 172.935 346.329C172.939 346.329 172.944 346.329 172.949 346.329H172.964C172.979 346.338 172.996 346.355 173.015 346.38C173.04 346.399 173.064 346.421 173.088 346.446C173.118 346.47 173.142 346.495 173.162 346.519C173.181 346.539 173.193 346.553 173.198 346.563C173.208 346.563 173.218 346.58 173.228 346.614C173.242 346.644 173.25 346.668 173.25 346.688C173.25 346.707 173.257 346.749 173.271 346.812C173.286 346.875 173.301 346.944 173.315 347.017C173.33 347.085 173.345 347.151 173.359 347.215C173.374 347.278 173.381 347.317 173.381 347.332C173.386 347.352 173.401 347.398 173.425 347.471C173.45 347.544 173.474 347.623 173.499 347.706C173.528 347.784 173.555 347.859 173.579 347.933C173.604 348.001 173.616 348.045 173.616 348.064C173.66 348.221 173.704 348.389 173.748 348.57C173.792 348.75 173.838 348.919 173.887 349.075C173.887 349.08 173.892 349.097 173.901 349.126C173.916 349.151 173.931 349.18 173.945 349.214C173.965 349.244 173.982 349.273 173.997 349.302C174.016 349.327 174.028 349.341 174.033 349.346C174.072 349.439 174.094 349.539 174.099 349.646C174.109 349.749 174.133 349.849 174.172 349.947C174.27 350.254 174.37 350.552 174.473 350.84C174.575 351.128 174.668 351.426 174.751 351.734C174.756 351.749 174.763 351.778 174.773 351.822C174.783 351.866 174.792 351.915 174.802 351.968C174.812 352.017 174.822 352.063 174.832 352.107C174.841 352.151 174.846 352.178 174.846 352.188C174.851 352.198 174.861 352.22 174.875 352.254C174.89 352.283 174.905 352.315 174.919 352.349C174.939 352.383 174.954 352.415 174.963 352.444C174.978 352.474 174.985 352.491 174.985 352.496C174.985 352.505 174.988 352.527 174.993 352.562C174.998 352.591 175.002 352.625 175.007 352.664C175.012 352.698 175.017 352.732 175.022 352.767C175.027 352.796 175.029 352.815 175.029 352.825C175.034 352.845 175.044 352.889 175.059 352.957C175.078 353.025 175.098 353.099 175.117 353.177C175.142 353.25 175.164 353.321 175.183 353.389C175.203 353.458 175.215 353.501 175.22 353.521C175.273 353.716 175.334 353.909 175.403 354.1C175.476 354.29 175.537 354.49 175.586 354.7C175.625 354.886 175.662 355.066 175.696 355.242C175.735 355.413 175.789 355.584 175.857 355.755C175.886 355.828 175.913 355.909 175.938 355.997C175.962 356.08 175.996 356.15 176.04 356.209C176.094 356.292 176.162 356.36 176.245 356.414C176.333 356.463 176.423 356.502 176.516 356.531C176.614 356.561 176.711 356.583 176.809 356.597C176.912 356.607 177.004 356.614 177.087 356.619C177.161 356.644 177.205 356.683 177.219 356.736C177.239 356.785 177.249 356.841 177.249 356.905C177.249 356.91 177.246 356.917 177.241 356.927C177.241 356.932 177.241 356.939 177.241 356.949C177.236 356.963 177.234 356.976 177.234 356.985L177.139 357.037H176.904H176.582C176.572 357.037 176.548 357.027 176.509 357.007C176.475 356.993 176.455 356.985 176.45 356.985H176.414C176.335 356.985 176.262 356.993 176.194 357.007C176.125 357.027 176.05 357.037 175.967 357.037C175.869 357.037 175.769 357.027 175.667 357.007C175.569 356.993 175.469 356.985 175.366 356.985C175.312 356.985 175.261 356.993 175.212 357.007C175.164 357.027 175.112 357.037 175.059 357.037C174.927 357.037 174.795 357.027 174.663 357.007C174.536 356.993 174.402 356.985 174.26 356.985C174.055 356.985 173.848 357.002 173.638 357.037C173.433 357.071 173.22 357.088 173 357.088H172.781C172.742 357.054 172.708 357.015 172.678 356.971C172.654 356.927 172.642 356.878 172.642 356.824C172.642 356.761 172.676 356.712 172.744 356.678C172.817 356.644 172.908 356.617 173.015 356.597C173.123 356.578 173.242 356.563 173.374 356.553C173.511 356.539 173.643 356.521 173.77 356.502C173.896 356.482 174.011 356.453 174.114 356.414C174.221 356.375 174.302 356.321 174.355 356.253V356.099V355.945C174.351 355.94 174.343 355.923 174.333 355.894C174.329 355.86 174.321 355.823 174.312 355.784C174.302 355.74 174.292 355.701 174.282 355.667C174.272 355.628 174.265 355.596 174.26 355.572C174.255 355.562 174.246 355.538 174.231 355.499C174.216 355.459 174.199 355.418 174.18 355.374C174.165 355.325 174.15 355.281 174.136 355.242C174.126 355.203 174.121 355.179 174.121 355.169C174.116 355.154 174.106 355.123 174.092 355.074C174.082 355.025 174.07 354.971 174.055 354.913C174.041 354.854 174.026 354.8 174.011 354.751C173.997 354.698 173.989 354.664 173.989 354.649C173.984 354.644 173.975 354.622 173.96 354.583C173.95 354.544 173.936 354.502 173.916 354.458C173.901 354.41 173.887 354.366 173.872 354.327C173.862 354.283 173.855 354.256 173.85 354.246C173.835 354.192 173.821 354.129 173.806 354.056C173.792 353.978 173.772 353.899 173.748 353.821C173.728 353.743 173.704 353.672 173.674 353.609C173.645 353.545 173.608 353.499 173.564 353.47H173.25H172.927C172.917 353.47 172.893 353.479 172.854 353.499C172.815 353.514 172.791 353.521 172.781 353.521H172.766H172.744C172.739 353.521 172.722 353.519 172.693 353.514C172.668 353.509 172.639 353.504 172.605 353.499C172.576 353.489 172.546 353.482 172.517 353.477C172.493 353.472 172.478 353.47 172.473 353.47C172.468 353.47 172.454 353.472 172.429 353.477C172.405 353.482 172.38 353.489 172.356 353.499C172.332 353.504 172.307 353.509 172.283 353.514C172.263 353.519 172.253 353.521 172.253 353.521H171.411C171.392 353.521 171.357 353.523 171.309 353.528C171.265 353.528 171.216 353.531 171.162 353.536C171.108 353.541 171.057 353.545 171.008 353.55C170.964 353.555 170.933 353.56 170.913 353.565C170.903 353.57 170.896 353.575 170.891 353.58C170.881 353.584 170.874 353.589 170.869 353.594C170.869 353.599 170.867 353.602 170.862 353.602C170.764 353.909 170.669 354.222 170.576 354.539C170.488 354.856 170.403 355.171 170.32 355.484C170.3 355.562 170.271 355.645 170.232 355.733C170.198 355.821 170.181 355.906 170.181 355.989C170.181 356.053 170.195 356.116 170.225 356.18C170.259 356.243 170.291 356.299 170.32 356.348C170.334 356.348 170.364 356.351 170.408 356.355C170.452 356.36 170.498 356.368 170.547 356.377C170.596 356.382 170.642 356.387 170.686 356.392C170.73 356.397 170.759 356.399 170.774 356.399C170.779 356.399 170.793 356.404 170.818 356.414C170.847 356.424 170.876 356.434 170.906 356.443C170.94 356.453 170.969 356.463 170.994 356.473C171.023 356.478 171.04 356.48 171.045 356.48C171.108 356.495 171.174 356.504 171.243 356.509C171.316 356.514 171.382 356.524 171.44 356.539C171.499 356.553 171.548 356.58 171.587 356.619C171.626 356.653 171.646 356.709 171.646 356.788C171.646 356.929 171.614 357.015 171.55 357.044C171.492 357.073 171.409 357.088 171.301 357.088H171.206H170.913C170.903 357.088 170.881 357.085 170.847 357.081C170.818 357.076 170.786 357.068 170.752 357.059C170.718 357.054 170.684 357.049 170.649 357.044C170.62 357.039 170.601 357.037 170.591 357.037H169.727C169.717 357.037 169.695 357.034 169.661 357.029C169.631 357.024 169.597 357.017 169.558 357.007C169.524 357.002 169.49 356.998 169.456 356.993C169.426 356.988 169.407 356.985 169.397 356.985H169.272C169.229 356.985 169.189 356.988 169.155 356.993C169.121 356.998 169.08 357.012 169.031 357.037H168.262C168.242 357.046 168.218 357.056 168.188 357.066C168.159 357.081 168.14 357.088 168.13 357.088H168.093C168.069 357.088 168.035 357.081 167.991 357.066C167.952 357.051 167.913 357.032 167.874 357.007C167.83 356.988 167.793 356.963 167.764 356.934C167.729 356.9 167.712 356.868 167.712 356.839ZM183.357 356.927C183.23 356.897 183.088 356.863 182.932 356.824C182.781 356.785 182.644 356.746 182.522 356.707C182.512 356.707 182.488 356.692 182.449 356.663C182.415 356.634 182.397 356.614 182.397 356.604C182.28 356.546 182.17 356.5 182.068 356.465C181.97 356.431 181.882 356.392 181.804 356.348C181.731 356.299 181.672 356.233 181.628 356.15C181.589 356.067 181.57 355.945 181.57 355.784V355.748C181.57 355.738 181.584 355.706 181.614 355.652C181.643 355.599 181.658 355.567 181.658 355.557C181.682 355.455 181.692 355.345 181.687 355.228C181.687 355.105 181.694 354.986 181.709 354.869C181.709 354.864 181.716 354.844 181.731 354.81C181.75 354.771 181.76 354.747 181.76 354.737C181.76 354.732 181.76 354.717 181.76 354.693C181.765 354.668 181.77 354.642 181.775 354.612C181.78 354.583 181.785 354.556 181.79 354.532C181.794 354.502 181.799 354.48 181.804 354.466C181.804 354.456 181.804 354.434 181.804 354.4C181.809 354.361 181.814 354.322 181.819 354.283C181.824 354.244 181.829 354.207 181.833 354.173C181.838 354.134 181.841 354.109 181.841 354.1C181.841 354.095 181.843 354.078 181.848 354.048C181.853 354.019 181.858 353.99 181.863 353.96C181.873 353.931 181.88 353.904 181.885 353.88C181.89 353.851 181.892 353.833 181.892 353.829C181.892 353.819 181.895 353.797 181.899 353.763C181.904 353.729 181.909 353.692 181.914 353.653C181.919 353.609 181.924 353.57 181.929 353.536C181.934 353.497 181.938 353.47 181.943 353.455C181.943 353.44 181.946 353.418 181.951 353.389C181.96 353.355 181.97 353.323 181.98 353.294C181.995 353.265 182.009 353.238 182.024 353.213C182.043 353.189 182.065 353.177 182.09 353.177C182.129 353.177 182.163 353.213 182.192 353.287C182.222 353.36 182.246 353.448 182.266 353.55C182.29 353.648 182.31 353.746 182.324 353.843C182.339 353.941 182.351 354.012 182.361 354.056C182.366 354.085 182.371 354.139 182.375 354.217C182.385 354.295 182.393 354.378 182.397 354.466C182.407 354.554 182.415 354.637 182.419 354.715C182.429 354.788 182.434 354.839 182.434 354.869C182.444 354.878 182.454 354.893 182.463 354.913C182.478 354.932 182.485 354.947 182.485 354.957C182.524 355.04 182.554 355.118 182.573 355.191C182.593 355.264 182.625 355.342 182.668 355.425C182.673 355.44 182.683 355.464 182.698 355.499C182.717 355.528 182.737 355.56 182.756 355.594C182.776 355.623 182.793 355.652 182.808 355.682C182.827 355.711 182.842 355.733 182.852 355.748C182.861 355.752 182.878 355.767 182.903 355.792C182.927 355.816 182.939 355.833 182.939 355.843C182.944 355.848 182.952 355.865 182.961 355.894C182.976 355.918 182.991 355.948 183.005 355.982C183.02 356.011 183.035 356.041 183.049 356.07C183.064 356.094 183.071 356.109 183.071 356.114C183.115 356.177 183.174 356.233 183.247 356.282C183.32 356.331 183.398 356.375 183.481 356.414C183.564 356.448 183.647 356.482 183.73 356.517C183.813 356.546 183.889 356.575 183.958 356.604C183.967 356.614 183.987 356.634 184.016 356.663C184.05 356.692 184.072 356.707 184.082 356.707H184.155H184.353C184.373 356.707 184.419 356.714 184.492 356.729C184.57 356.739 184.619 356.744 184.639 356.744H184.844C185.024 356.744 185.183 356.722 185.32 356.678C185.461 356.634 185.61 356.58 185.767 356.517C185.801 356.507 185.847 356.497 185.906 356.487C185.969 356.473 186.018 356.451 186.052 356.421C186.062 356.417 186.084 356.399 186.118 356.37C186.152 356.336 186.189 356.299 186.228 356.26C186.267 356.221 186.304 356.182 186.338 356.143C186.377 356.104 186.404 356.077 186.418 356.062C186.438 356.043 186.465 356.014 186.499 355.975C186.533 355.936 186.567 355.896 186.602 355.857C186.636 355.818 186.665 355.784 186.689 355.755C186.719 355.721 186.736 355.701 186.741 355.696C186.746 355.691 186.75 355.677 186.755 355.652C186.765 355.623 186.775 355.594 186.785 355.564C186.794 355.53 186.802 355.501 186.807 355.477C186.816 355.447 186.824 355.43 186.829 355.425C186.853 355.362 186.875 355.313 186.895 355.279C186.919 355.24 186.938 355.203 186.953 355.169C186.973 355.13 186.987 355.088 186.997 355.044C187.007 355 187.012 354.942 187.012 354.869C187.012 354.712 187.007 354.561 186.997 354.415C186.992 354.268 186.985 354.117 186.975 353.96C186.956 353.863 186.917 353.78 186.858 353.711C186.799 353.643 186.743 353.575 186.689 353.506C186.685 353.497 186.665 353.472 186.631 353.433C186.602 353.394 186.567 353.35 186.528 353.301C186.494 353.252 186.46 353.208 186.426 353.169C186.396 353.125 186.379 353.099 186.375 353.089C186.34 353.045 186.309 353.016 186.279 353.001C186.255 352.981 186.228 352.967 186.199 352.957C186.174 352.947 186.145 352.938 186.111 352.928C186.082 352.918 186.045 352.898 186.001 352.869C185.952 352.83 185.903 352.781 185.854 352.723C185.811 352.664 185.757 352.623 185.693 352.598C185.684 352.593 185.664 352.588 185.635 352.583C185.61 352.579 185.581 352.574 185.547 352.569C185.518 352.564 185.488 352.559 185.459 352.554C185.435 352.549 185.42 352.547 185.415 352.547C185.391 352.537 185.349 352.522 185.291 352.503C185.237 352.483 185.203 352.469 185.188 352.459C185.178 352.449 185.149 352.43 185.1 352.4C185.056 352.371 185.007 352.342 184.954 352.312C184.905 352.278 184.856 352.249 184.807 352.225C184.763 352.195 184.734 352.178 184.719 352.173C184.592 352.12 184.448 352.081 184.287 352.056C184.131 352.032 183.989 351.995 183.862 351.946C183.735 351.907 183.613 351.854 183.496 351.785C183.384 351.717 183.276 351.646 183.174 351.573C183.057 351.504 182.942 351.431 182.83 351.353C182.722 351.275 182.607 351.202 182.485 351.133C182.485 351.124 182.478 351.114 182.463 351.104C182.454 351.089 182.444 351.082 182.434 351.082C182.209 350.74 182.024 350.391 181.877 350.035C181.731 349.673 181.658 349.28 181.658 348.855V348.716C181.658 348.667 181.66 348.621 181.665 348.577C181.67 348.528 181.685 348.477 181.709 348.423C181.714 348.418 181.721 348.404 181.731 348.379C181.746 348.35 181.76 348.321 181.775 348.292C181.79 348.257 181.804 348.228 181.819 348.204C181.833 348.174 181.841 348.157 181.841 348.152C181.841 348.147 181.843 348.133 181.848 348.108C181.853 348.079 181.858 348.05 181.863 348.021C181.868 347.986 181.873 347.957 181.877 347.933C181.882 347.903 181.887 347.886 181.892 347.881C181.902 347.857 181.914 347.825 181.929 347.786C181.943 347.747 181.96 347.706 181.98 347.662C182 347.618 182.021 347.576 182.046 347.537C182.07 347.493 182.097 347.457 182.126 347.427C182.131 347.417 182.148 347.398 182.178 347.369C182.212 347.334 182.246 347.3 182.28 347.266C182.319 347.227 182.354 347.193 182.383 347.164C182.412 347.134 182.429 347.115 182.434 347.105C182.444 347.105 182.454 347.095 182.463 347.076C182.478 347.051 182.485 347.029 182.485 347.01C182.544 346.873 182.622 346.768 182.72 346.695C182.817 346.617 182.935 346.536 183.071 346.453C183.081 346.463 183.093 346.468 183.108 346.468C183.118 346.468 183.123 346.463 183.123 346.453C183.127 346.453 183.137 346.448 183.152 346.438C183.171 346.424 183.191 346.409 183.21 346.395C183.235 346.375 183.257 346.36 183.276 346.351C183.296 346.336 183.306 346.329 183.306 346.329H183.342H183.445C183.455 346.329 183.486 346.321 183.54 346.307C183.594 346.292 183.65 346.277 183.708 346.263C183.772 346.243 183.831 346.229 183.884 346.219C183.943 346.204 183.979 346.197 183.994 346.197H184.097H184.353C184.368 346.192 184.402 346.187 184.456 346.182C184.509 346.177 184.565 346.172 184.624 346.167C184.688 346.163 184.746 346.158 184.8 346.153C184.858 346.148 184.895 346.146 184.91 346.146H184.946H184.954C184.963 346.146 184.978 346.155 184.998 346.175C185.017 346.189 185.032 346.197 185.042 346.197H185.239H185.327C185.391 346.202 185.466 346.226 185.554 346.27C185.647 346.309 185.74 346.355 185.833 346.409C185.925 346.458 186.016 346.509 186.104 346.563C186.191 346.617 186.265 346.658 186.323 346.688C186.333 346.697 186.355 346.709 186.389 346.724C186.428 346.734 186.45 346.739 186.455 346.739C186.499 346.763 186.541 346.797 186.58 346.841C186.619 346.88 186.658 346.919 186.697 346.958C186.741 346.998 186.785 347.032 186.829 347.061C186.877 347.09 186.931 347.105 186.99 347.105C187.058 347.105 187.107 347.083 187.136 347.039C187.17 346.995 187.195 346.944 187.209 346.885C187.229 346.827 187.244 346.768 187.253 346.709C187.263 346.646 187.278 346.595 187.297 346.556C187.297 346.541 187.307 346.521 187.327 346.497C187.346 346.473 187.368 346.446 187.393 346.417C187.417 346.387 187.439 346.36 187.458 346.336C187.483 346.312 187.498 346.294 187.502 346.285C187.512 346.275 187.524 346.27 187.539 346.27H187.554C187.622 346.27 187.668 346.304 187.693 346.373C187.722 346.441 187.737 346.502 187.737 346.556V346.636C187.737 346.651 187.732 346.678 187.722 346.717C187.717 346.751 187.71 346.79 187.7 346.834C187.69 346.873 187.681 346.912 187.671 346.951C187.661 346.985 187.654 347.005 187.649 347.01C187.576 347.562 187.539 348.123 187.539 348.694C187.539 348.782 187.542 348.87 187.546 348.958C187.551 349.041 187.554 349.126 187.554 349.214C187.544 349.244 187.532 349.28 187.517 349.324C187.507 349.363 187.49 349.402 187.466 349.441C187.446 349.48 187.422 349.515 187.393 349.544C187.363 349.568 187.332 349.581 187.297 349.581C187.239 349.581 187.192 349.568 187.158 349.544C187.129 349.52 187.104 349.49 187.085 349.456C187.07 349.417 187.058 349.378 187.048 349.339C187.039 349.295 187.026 349.253 187.012 349.214C186.958 349.058 186.904 348.885 186.851 348.694C186.797 348.504 186.743 348.335 186.689 348.189C186.665 348.13 186.624 348.062 186.565 347.984C186.511 347.906 186.448 347.828 186.375 347.75C186.306 347.667 186.238 347.591 186.169 347.522C186.101 347.449 186.045 347.386 186.001 347.332C185.952 347.269 185.906 347.195 185.862 347.112C185.818 347.024 185.762 346.961 185.693 346.922C185.64 346.893 185.576 346.863 185.503 346.834C185.43 346.8 185.354 346.768 185.276 346.739C185.198 346.709 185.12 346.685 185.042 346.666C184.968 346.646 184.902 346.636 184.844 346.636C184.722 346.636 184.602 346.661 184.485 346.709C184.368 346.753 184.246 346.792 184.119 346.827C184.114 346.827 184.099 346.829 184.075 346.834C184.055 346.839 184.031 346.844 184.001 346.849C183.972 346.854 183.945 346.858 183.921 346.863C183.896 346.868 183.877 346.871 183.862 346.871H183.679C183.674 346.875 183.662 346.885 183.643 346.9C183.623 346.915 183.599 346.932 183.569 346.951C183.545 346.971 183.521 346.99 183.496 347.01C183.472 347.029 183.455 347.046 183.445 347.061C183.313 347.178 183.206 347.288 183.123 347.391C183.04 347.493 182.974 347.601 182.925 347.713C182.881 347.82 182.849 347.94 182.83 348.072C182.81 348.204 182.8 348.357 182.8 348.533C182.8 348.572 182.803 348.626 182.808 348.694C182.812 348.763 182.82 348.836 182.83 348.914C182.839 348.987 182.852 349.056 182.866 349.119C182.886 349.183 182.91 349.229 182.939 349.258L183.54 349.837C183.555 349.847 183.574 349.859 183.599 349.874C183.623 349.888 183.65 349.903 183.679 349.917C183.708 349.932 183.735 349.944 183.76 349.954C183.784 349.964 183.801 349.971 183.811 349.976C183.816 349.981 183.831 349.993 183.855 350.013C183.884 350.032 183.914 350.052 183.943 350.071C183.977 350.091 184.006 350.11 184.031 350.13C184.06 350.145 184.077 350.154 184.082 350.159C184.18 350.223 184.285 350.274 184.397 350.313C184.509 350.347 184.617 350.391 184.719 350.445C184.734 350.45 184.761 350.462 184.8 350.481C184.844 350.496 184.888 350.513 184.932 350.533C184.976 350.552 185.017 350.572 185.056 350.591C185.1 350.606 185.129 350.618 185.144 350.628C185.149 350.628 185.168 350.638 185.203 350.657C185.237 350.677 185.273 350.699 185.312 350.723C185.356 350.743 185.396 350.762 185.43 350.782C185.469 350.796 185.496 350.806 185.51 350.811C185.515 350.811 185.532 350.813 185.562 350.818C185.591 350.818 185.623 350.821 185.657 350.826C185.691 350.831 185.723 350.838 185.752 350.848C185.786 350.853 185.808 350.857 185.818 350.862C185.828 350.862 185.85 350.875 185.884 350.899C185.923 350.923 185.945 350.938 185.95 350.943C185.969 350.953 186.001 350.97 186.045 350.994C186.094 351.014 186.143 351.036 186.191 351.06C186.24 351.084 186.287 351.109 186.331 351.133C186.375 351.153 186.404 351.167 186.418 351.177C186.667 351.294 186.897 351.453 187.107 351.653C187.322 351.854 187.505 352.081 187.656 352.334C187.812 352.588 187.935 352.857 188.022 353.14C188.11 353.418 188.154 353.697 188.154 353.975V354.056C188.149 354.104 188.142 354.173 188.132 354.261C188.127 354.344 188.12 354.429 188.11 354.517C188.101 354.605 188.091 354.683 188.081 354.751C188.071 354.82 188.064 354.859 188.059 354.869C188.04 354.976 188.01 355.076 187.971 355.169C187.932 355.257 187.883 355.342 187.825 355.425C187.771 355.508 187.712 355.591 187.649 355.674C187.59 355.757 187.529 355.843 187.466 355.931C187.466 355.936 187.461 355.948 187.451 355.967C187.441 355.982 187.432 355.999 187.422 356.019C187.412 356.038 187.4 356.058 187.385 356.077C187.375 356.097 187.371 356.109 187.371 356.114C187.336 356.177 187.28 356.226 187.202 356.26C187.129 356.294 187.065 356.331 187.012 356.37C187.007 356.38 186.992 356.397 186.968 356.421C186.948 356.446 186.926 356.473 186.902 356.502C186.877 356.526 186.853 356.551 186.829 356.575C186.809 356.595 186.797 356.604 186.792 356.604C186.704 356.663 186.619 356.709 186.536 356.744C186.453 356.778 186.367 356.807 186.279 356.832C186.191 356.856 186.101 356.88 186.008 356.905C185.92 356.924 185.825 356.949 185.723 356.978C185.625 357.007 185.537 357.037 185.459 357.066C185.386 357.095 185.295 357.11 185.188 357.11H185.042C184.978 357.105 184.866 357.093 184.705 357.073C184.543 357.059 184.373 357.042 184.192 357.022C184.016 357.002 183.848 356.985 183.687 356.971C183.53 356.951 183.42 356.937 183.357 356.927ZM190.93 352.298C190.93 352.308 190.935 352.32 190.945 352.334C190.959 352.344 190.972 352.349 190.981 352.349C190.996 352.354 191.018 352.359 191.047 352.364C191.077 352.369 191.108 352.374 191.143 352.378C191.177 352.383 191.208 352.388 191.238 352.393C191.267 352.398 191.287 352.4 191.296 352.4H193.208C193.291 352.4 193.372 352.378 193.45 352.334C193.533 352.286 193.574 352.212 193.574 352.115C193.574 351.983 193.552 351.856 193.508 351.734C193.469 351.607 193.413 351.49 193.34 351.382C193.267 351.27 193.179 351.172 193.076 351.089C192.979 351.001 192.871 350.933 192.754 350.884C192.7 350.86 192.659 350.833 192.629 350.804C192.6 350.77 192.554 350.752 192.49 350.752C192.329 350.752 192.156 350.794 191.97 350.877C191.79 350.96 191.621 351.067 191.465 351.199C191.309 351.331 191.177 351.48 191.069 351.646C190.967 351.807 190.916 351.968 190.916 352.129C190.916 352.149 190.918 352.181 190.923 352.225C190.928 352.264 190.93 352.288 190.93 352.298ZM189.568 353.865C189.543 353.831 189.526 353.794 189.517 353.755C189.507 353.711 189.502 353.67 189.502 353.631C189.502 353.592 189.504 353.558 189.509 353.528C189.514 353.494 189.517 353.465 189.517 353.44V353.213C189.517 353.204 189.521 353.182 189.531 353.147C189.541 353.108 189.553 353.067 189.568 353.023C189.583 352.979 189.597 352.938 189.612 352.898C189.626 352.854 189.639 352.823 189.648 352.803C189.648 352.793 189.663 352.771 189.692 352.737C189.722 352.698 189.736 352.676 189.736 352.671C189.771 352.559 189.792 352.447 189.802 352.334C189.812 352.222 189.851 352.12 189.919 352.027C189.929 352.017 189.946 351.998 189.971 351.968C190 351.934 190.029 351.9 190.059 351.866C190.093 351.827 190.122 351.792 190.146 351.763C190.176 351.734 190.195 351.717 190.205 351.712C190.215 351.697 190.229 351.666 190.249 351.617C190.269 351.563 190.283 351.531 190.293 351.521C190.322 351.473 190.371 351.431 190.439 351.397C190.513 351.358 190.569 351.321 190.608 351.287C190.671 351.238 190.732 351.185 190.791 351.126C190.854 351.062 190.916 351.001 190.974 350.943C191.038 350.879 191.101 350.823 191.165 350.774C191.233 350.721 191.306 350.679 191.384 350.65C191.497 350.611 191.614 350.579 191.736 350.555C191.858 350.53 191.975 350.518 192.087 350.518C192.234 350.518 192.395 350.521 192.571 350.525C192.747 350.53 192.898 350.542 193.025 350.562C193.118 350.577 193.235 350.613 193.376 350.672C193.518 350.73 193.657 350.801 193.794 350.884C193.936 350.962 194.065 351.048 194.182 351.141C194.299 351.229 194.385 351.312 194.438 351.39C194.487 351.463 194.543 351.548 194.607 351.646C194.67 351.744 194.729 351.849 194.783 351.961C194.841 352.068 194.89 352.176 194.929 352.283C194.968 352.386 194.988 352.481 194.988 352.569C194.988 352.71 194.927 352.818 194.805 352.891C194.771 352.891 194.707 352.894 194.614 352.898C194.526 352.903 194.431 352.911 194.329 352.92C194.226 352.925 194.128 352.93 194.036 352.935C193.943 352.94 193.879 352.942 193.845 352.942H193.296C193.062 352.942 192.834 352.93 192.615 352.906C192.395 352.881 192.17 352.864 191.941 352.854H191.567C191.558 352.854 191.528 352.847 191.479 352.833C191.431 352.813 191.399 352.803 191.384 352.803C191.365 352.798 191.331 352.793 191.282 352.789C191.238 352.779 191.189 352.769 191.135 352.759C191.082 352.75 191.03 352.742 190.981 352.737C190.933 352.728 190.898 352.72 190.879 352.715C190.84 352.725 190.798 352.75 190.754 352.789C190.715 352.823 190.684 352.857 190.659 352.891C190.654 352.906 190.649 352.935 190.645 352.979C190.64 353.018 190.635 353.064 190.63 353.118C190.625 353.167 190.62 353.216 190.615 353.265C190.61 353.309 190.608 353.34 190.608 353.36V353.367V353.396C190.613 353.411 190.62 353.426 190.63 353.44C190.64 353.475 190.649 353.492 190.659 353.492C190.659 353.501 190.674 353.526 190.703 353.565C190.732 353.599 190.747 353.621 190.747 353.631C190.737 353.641 190.73 353.653 190.725 353.667L190.71 353.711V353.829C190.71 353.897 190.718 353.956 190.732 354.004C190.752 354.048 190.774 354.107 190.798 354.18C190.852 354.38 190.918 354.566 190.996 354.737C191.074 354.908 191.174 355.083 191.296 355.264C191.335 355.328 191.375 355.367 191.414 355.381C191.458 355.396 191.509 355.418 191.567 355.447C191.577 355.457 191.599 355.472 191.633 355.491C191.672 355.511 191.697 355.525 191.707 355.535C191.897 355.696 192.102 355.821 192.322 355.909C192.542 355.997 192.778 356.041 193.032 356.041C193.076 356.041 193.113 356.036 193.142 356.026C193.171 356.011 193.198 355.997 193.223 355.982C193.252 355.967 193.279 355.953 193.303 355.938C193.328 355.923 193.357 355.911 193.391 355.901H193.611C193.689 355.892 193.765 355.875 193.838 355.85C193.911 355.821 193.982 355.794 194.05 355.77C194.124 355.74 194.197 355.716 194.27 355.696C194.343 355.672 194.419 355.66 194.497 355.66C194.497 355.694 194.495 355.721 194.49 355.74C194.49 355.755 194.485 355.77 194.475 355.784C194.47 355.799 194.46 355.816 194.446 355.835C194.436 355.85 194.421 355.872 194.402 355.901C194.329 356.019 194.258 356.114 194.189 356.187C194.126 356.255 194.058 356.316 193.984 356.37C193.911 356.424 193.828 356.475 193.735 356.524C193.647 356.568 193.545 356.619 193.428 356.678C193.394 356.697 193.367 356.717 193.347 356.736C193.328 356.751 193.306 356.766 193.281 356.78C193.262 356.795 193.237 356.81 193.208 356.824C193.184 356.839 193.149 356.854 193.105 356.868C193.086 356.873 193.059 356.875 193.025 356.875C192.991 356.875 192.957 356.88 192.922 356.89C192.888 356.895 192.854 356.907 192.82 356.927C192.791 356.941 192.769 356.966 192.754 357H192.271C191.953 357 191.66 356.968 191.392 356.905C191.128 356.841 190.867 356.705 190.608 356.495C190.388 356.324 190.208 356.114 190.066 355.865C189.929 355.616 189.819 355.354 189.736 355.081C189.727 355.071 189.719 355.059 189.714 355.044C189.705 355.015 189.7 354.993 189.7 354.979C189.685 354.954 189.67 354.92 189.656 354.876C189.641 354.832 189.626 354.788 189.612 354.744C189.602 354.7 189.592 354.664 189.583 354.634C189.573 354.6 189.568 354.581 189.568 354.576C189.558 354.551 189.551 354.505 189.546 354.437C189.541 354.363 189.539 354.29 189.539 354.217C189.539 354.144 189.541 354.073 189.546 354.004C189.551 353.936 189.558 353.89 189.568 353.865ZM195.559 356.868C195.559 356.8 195.579 356.744 195.618 356.7C195.657 356.651 195.703 356.612 195.757 356.583C195.815 356.553 195.876 356.534 195.94 356.524C196.003 356.509 196.062 356.5 196.116 356.495H196.533C196.587 356.47 196.626 356.434 196.65 356.385C196.675 356.331 196.689 356.272 196.694 356.209C196.704 356.146 196.709 356.082 196.709 356.019C196.709 355.95 196.711 355.892 196.716 355.843C196.721 355.838 196.726 355.828 196.731 355.813C196.736 355.804 196.741 355.794 196.746 355.784C196.75 355.774 196.758 355.765 196.768 355.755C196.777 355.745 196.785 355.723 196.79 355.689C196.799 355.655 196.804 355.633 196.804 355.623V353.704C196.804 353.689 196.812 353.658 196.826 353.609C196.846 353.56 196.855 353.531 196.855 353.521V353.492C196.855 353.418 196.846 353.345 196.826 353.272C196.812 353.199 196.804 353.121 196.804 353.038C196.804 352.94 196.812 352.85 196.826 352.767C196.846 352.679 196.855 352.588 196.855 352.496V352.422C196.855 352.393 196.853 352.354 196.848 352.305C196.843 352.251 196.836 352.198 196.826 352.144C196.821 352.085 196.816 352.037 196.812 351.998C196.807 351.954 196.804 351.927 196.804 351.917C196.79 351.814 196.724 351.746 196.606 351.712C196.489 351.678 196.362 351.651 196.226 351.631C196.094 351.612 195.972 351.59 195.859 351.565C195.752 351.536 195.698 351.478 195.698 351.39C195.698 351.326 195.75 351.27 195.852 351.221C195.955 351.167 196.072 351.121 196.204 351.082C196.335 351.043 196.465 351.009 196.592 350.979C196.719 350.95 196.807 350.926 196.855 350.906C196.865 350.901 196.887 350.889 196.921 350.87C196.956 350.85 196.992 350.831 197.031 350.811C197.07 350.792 197.107 350.774 197.141 350.76C197.18 350.74 197.207 350.728 197.222 350.723C197.227 350.723 197.244 350.718 197.273 350.708C197.307 350.699 197.341 350.689 197.375 350.679C197.415 350.665 197.449 350.652 197.478 350.643C197.512 350.633 197.534 350.628 197.544 350.628C197.544 350.628 197.554 350.625 197.573 350.621C197.598 350.611 197.622 350.601 197.646 350.591C197.671 350.582 197.695 350.572 197.72 350.562C197.744 350.552 197.759 350.545 197.764 350.54H197.786H197.815C197.913 350.579 197.981 350.618 198.02 350.657C198.064 350.691 198.086 350.767 198.086 350.884C198.086 350.948 198.079 351.011 198.064 351.075C198.054 351.133 198.049 351.189 198.049 351.243V351.375C198.049 351.438 198.054 351.497 198.064 351.551C198.079 351.6 198.113 351.644 198.167 351.683H198.203C198.262 351.683 198.32 351.658 198.379 351.609C198.442 351.561 198.503 351.504 198.562 351.441C198.621 351.373 198.674 351.307 198.723 351.243C198.777 351.175 198.823 351.121 198.862 351.082C198.984 350.984 199.111 350.899 199.243 350.826C199.375 350.752 199.509 350.669 199.646 350.577C199.661 350.586 199.685 350.591 199.719 350.591C199.773 350.591 199.836 350.584 199.91 350.569C199.983 350.55 200.046 350.54 200.1 350.54C200.178 350.54 200.259 350.552 200.342 350.577C200.425 350.596 200.498 350.63 200.562 350.679C200.63 350.723 200.684 350.779 200.723 350.848C200.767 350.916 200.789 350.994 200.789 351.082V351.177C200.774 351.28 200.762 351.38 200.752 351.478C200.747 351.57 200.73 351.653 200.701 351.727C200.671 351.8 200.623 351.858 200.554 351.902C200.486 351.946 200.383 351.968 200.247 351.968H200.188C200.173 351.963 200.151 351.958 200.122 351.954C200.093 351.944 200.063 351.937 200.034 351.932C200.005 351.927 199.978 351.924 199.954 351.924C199.934 351.919 199.922 351.917 199.917 351.917C199.912 351.912 199.9 351.902 199.88 351.888C199.866 351.873 199.849 351.858 199.829 351.844C199.81 351.824 199.79 351.807 199.771 351.792C199.756 351.778 199.746 351.771 199.741 351.771H199.631H199.36C199.355 351.771 199.338 351.768 199.309 351.763C199.28 351.758 199.246 351.756 199.207 351.756C199.172 351.751 199.138 351.746 199.104 351.741C199.075 351.736 199.058 351.734 199.053 351.734H199.009C198.936 351.734 198.853 351.741 198.76 351.756C198.672 351.771 198.584 351.797 198.496 351.836C198.408 351.871 198.33 351.917 198.262 351.976C198.193 352.029 198.149 352.1 198.13 352.188C198.14 352.706 198.135 353.221 198.115 353.733C198.096 354.246 198.086 354.761 198.086 355.279C198.086 355.323 198.083 355.381 198.079 355.455C198.074 355.523 198.071 355.599 198.071 355.682C198.071 355.765 198.074 355.85 198.079 355.938C198.088 356.026 198.103 356.109 198.123 356.187C198.142 356.26 198.169 356.326 198.203 356.385C198.242 356.438 198.293 356.475 198.357 356.495C198.376 356.495 198.411 356.492 198.459 356.487C198.513 356.482 198.572 356.48 198.635 356.48C198.699 356.48 198.755 356.482 198.804 356.487C198.853 356.492 198.887 356.495 198.906 356.495C198.989 356.504 199.058 356.531 199.111 356.575C199.165 356.614 199.192 356.67 199.192 356.744C199.192 356.812 199.185 356.863 199.17 356.897C199.155 356.932 199.133 356.956 199.104 356.971C199.075 356.98 199.038 356.988 198.994 356.993C198.955 356.993 198.911 356.995 198.862 357C198.857 357 198.84 357.01 198.811 357.029C198.796 357.039 198.784 357.046 198.774 357.051H198.745C198.55 357.051 198.335 357.044 198.101 357.029C197.866 357.015 197.644 356.988 197.434 356.949H197.419C197.371 356.949 197.324 356.958 197.28 356.978C197.236 356.993 197.192 357 197.148 357C197.104 357 197.063 356.993 197.024 356.978C196.99 356.958 196.953 356.949 196.914 356.949H196.892C196.755 356.988 196.614 357.015 196.467 357.029C196.326 357.044 196.184 357.051 196.042 357.051H195.94C195.862 357.051 195.779 357.042 195.691 357.022C195.603 357.002 195.559 356.951 195.559 356.868ZM202.136 347.01C202.136 346.917 202.153 346.829 202.188 346.746C202.222 346.658 202.268 346.583 202.327 346.519C202.385 346.456 202.454 346.404 202.532 346.365C202.615 346.326 202.705 346.307 202.803 346.307C202.896 346.307 202.993 346.324 203.096 346.358C203.198 346.387 203.293 346.431 203.381 346.49C203.469 346.548 203.542 346.622 203.601 346.709C203.66 346.792 203.689 346.888 203.689 346.995C203.689 347.142 203.667 347.266 203.623 347.369C203.579 347.466 203.518 347.547 203.44 347.61C203.362 347.669 203.267 347.713 203.154 347.742C203.047 347.771 202.93 347.786 202.803 347.786C202.778 347.786 202.734 347.784 202.671 347.779C202.607 347.774 202.566 347.771 202.546 347.771C202.419 347.674 202.319 347.564 202.246 347.442C202.173 347.315 202.136 347.171 202.136 347.01ZM201.067 356.824C201.067 356.746 201.118 356.697 201.221 356.678C201.323 356.653 201.438 356.639 201.565 356.634C201.697 356.624 201.819 356.614 201.931 356.604C202.043 356.59 202.112 356.553 202.136 356.495C202.175 356.397 202.202 356.294 202.217 356.187C202.231 356.08 202.239 355.97 202.239 355.857C202.239 355.77 202.236 355.682 202.231 355.594C202.227 355.506 202.224 355.42 202.224 355.337V355.213C202.234 354.993 202.251 354.776 202.275 354.561C202.3 354.341 202.314 354.117 202.319 353.887V352.115C202.344 352.061 202.358 352.015 202.363 351.976C202.368 351.932 202.371 351.883 202.371 351.829C202.371 351.761 202.351 351.709 202.312 351.675C202.273 351.641 202.227 351.617 202.173 351.602C202.119 351.587 202.063 351.58 202.004 351.58C201.946 351.575 201.899 351.568 201.865 351.558C201.821 351.558 201.775 351.553 201.726 351.543C201.677 351.534 201.631 351.519 201.587 351.5C201.548 351.475 201.514 351.446 201.484 351.412C201.46 351.377 201.448 351.336 201.448 351.287C201.448 351.238 201.46 351.202 201.484 351.177C201.509 351.148 201.538 351.128 201.572 351.119C201.611 351.104 201.65 351.094 201.689 351.089C201.733 351.084 201.775 351.077 201.814 351.067C201.819 351.067 201.836 351.062 201.865 351.053C201.895 351.043 201.924 351.033 201.953 351.023C201.982 351.009 202.009 350.997 202.034 350.987C202.063 350.977 202.08 350.972 202.085 350.972C202.1 350.972 202.131 350.97 202.18 350.965C202.229 350.96 202.283 350.955 202.341 350.95C202.4 350.945 202.454 350.94 202.502 350.936C202.551 350.931 202.581 350.926 202.59 350.921C202.668 350.901 202.749 350.875 202.832 350.84C202.92 350.806 203.005 350.772 203.088 350.738C203.171 350.704 203.254 350.674 203.337 350.65C203.425 350.625 203.513 350.613 203.601 350.613H203.66C203.704 350.613 203.73 350.625 203.74 350.65V350.833C203.74 351.106 203.721 351.375 203.682 351.639C203.643 351.902 203.623 352.171 203.623 352.444C203.623 352.552 203.633 352.649 203.652 352.737C203.677 352.82 203.689 352.908 203.689 353.001C203.689 353.045 203.687 353.082 203.682 353.111C203.682 353.135 203.672 353.169 203.652 353.213C203.657 353.594 203.647 353.975 203.623 354.356C203.599 354.737 203.586 355.118 203.586 355.499V355.755C203.586 355.882 203.589 356.006 203.594 356.128C203.599 356.246 203.618 356.368 203.652 356.495C203.682 356.539 203.713 356.57 203.748 356.59C203.782 356.609 203.818 356.624 203.857 356.634C203.896 356.639 203.938 356.644 203.982 356.648C204.026 356.648 204.075 356.658 204.128 356.678C204.143 356.678 204.165 356.685 204.194 356.7C204.224 356.709 204.255 356.722 204.29 356.736C204.324 356.751 204.355 356.766 204.385 356.78C204.419 356.795 204.446 356.807 204.465 356.817L204.509 356.854V356.89C204.509 356.915 204.497 356.934 204.473 356.949C204.453 356.963 204.429 356.976 204.399 356.985C204.375 356.99 204.348 356.995 204.319 357C204.294 357 204.28 357 204.275 357C203.801 356.99 203.33 356.995 202.861 357.015C202.393 357.039 201.921 357.051 201.448 357.051C201.409 357.051 201.367 357.049 201.323 357.044C201.279 357.044 201.238 357.037 201.199 357.022C201.165 357.007 201.133 356.985 201.104 356.956C201.079 356.927 201.067 356.883 201.067 356.824ZM206.721 352.298C206.721 352.308 206.726 352.32 206.736 352.334C206.75 352.344 206.763 352.349 206.772 352.349C206.787 352.354 206.809 352.359 206.838 352.364C206.868 352.369 206.899 352.374 206.934 352.378C206.968 352.383 207 352.388 207.029 352.393C207.058 352.398 207.078 352.4 207.087 352.4H208.999C209.082 352.4 209.163 352.378 209.241 352.334C209.324 352.286 209.365 352.212 209.365 352.115C209.365 351.983 209.343 351.856 209.299 351.734C209.26 351.607 209.204 351.49 209.131 351.382C209.058 351.27 208.97 351.172 208.867 351.089C208.77 351.001 208.662 350.933 208.545 350.884C208.491 350.86 208.45 350.833 208.42 350.804C208.391 350.77 208.345 350.752 208.281 350.752C208.12 350.752 207.947 350.794 207.761 350.877C207.581 350.96 207.412 351.067 207.256 351.199C207.1 351.331 206.968 351.48 206.86 351.646C206.758 351.807 206.707 351.968 206.707 352.129C206.707 352.149 206.709 352.181 206.714 352.225C206.719 352.264 206.721 352.288 206.721 352.298ZM205.359 353.865C205.334 353.831 205.317 353.794 205.308 353.755C205.298 353.711 205.293 353.67 205.293 353.631C205.293 353.592 205.295 353.558 205.3 353.528C205.305 353.494 205.308 353.465 205.308 353.44V353.213C205.308 353.204 205.312 353.182 205.322 353.147C205.332 353.108 205.344 353.067 205.359 353.023C205.374 352.979 205.388 352.938 205.403 352.898C205.417 352.854 205.43 352.823 205.439 352.803C205.439 352.793 205.454 352.771 205.483 352.737C205.513 352.698 205.527 352.676 205.527 352.671C205.562 352.559 205.583 352.447 205.593 352.334C205.603 352.222 205.642 352.12 205.71 352.027C205.72 352.017 205.737 351.998 205.762 351.968C205.791 351.934 205.82 351.9 205.85 351.866C205.884 351.827 205.913 351.792 205.938 351.763C205.967 351.734 205.986 351.717 205.996 351.712C206.006 351.697 206.021 351.666 206.04 351.617C206.06 351.563 206.074 351.531 206.084 351.521C206.113 351.473 206.162 351.431 206.23 351.397C206.304 351.358 206.36 351.321 206.399 351.287C206.462 351.238 206.523 351.185 206.582 351.126C206.646 351.062 206.707 351.001 206.765 350.943C206.829 350.879 206.892 350.823 206.956 350.774C207.024 350.721 207.097 350.679 207.175 350.65C207.288 350.611 207.405 350.579 207.527 350.555C207.649 350.53 207.766 350.518 207.878 350.518C208.025 350.518 208.186 350.521 208.362 350.525C208.538 350.53 208.689 350.542 208.816 350.562C208.909 350.577 209.026 350.613 209.167 350.672C209.309 350.73 209.448 350.801 209.585 350.884C209.727 350.962 209.856 351.048 209.973 351.141C210.09 351.229 210.176 351.312 210.229 351.39C210.278 351.463 210.334 351.548 210.398 351.646C210.461 351.744 210.52 351.849 210.574 351.961C210.632 352.068 210.681 352.176 210.72 352.283C210.759 352.386 210.779 352.481 210.779 352.569C210.779 352.71 210.718 352.818 210.596 352.891C210.562 352.891 210.498 352.894 210.405 352.898C210.317 352.903 210.222 352.911 210.12 352.92C210.017 352.925 209.919 352.93 209.827 352.935C209.734 352.94 209.67 352.942 209.636 352.942H209.087C208.853 352.942 208.625 352.93 208.406 352.906C208.186 352.881 207.961 352.864 207.732 352.854H207.358C207.349 352.854 207.319 352.847 207.271 352.833C207.222 352.813 207.19 352.803 207.175 352.803C207.156 352.798 207.122 352.793 207.073 352.789C207.029 352.779 206.98 352.769 206.926 352.759C206.873 352.75 206.821 352.742 206.772 352.737C206.724 352.728 206.689 352.72 206.67 352.715C206.631 352.725 206.589 352.75 206.545 352.789C206.506 352.823 206.475 352.857 206.45 352.891C206.445 352.906 206.44 352.935 206.436 352.979C206.431 353.018 206.426 353.064 206.421 353.118C206.416 353.167 206.411 353.216 206.406 353.265C206.401 353.309 206.399 353.34 206.399 353.36V353.367V353.396C206.404 353.411 206.411 353.426 206.421 353.44C206.431 353.475 206.44 353.492 206.45 353.492C206.45 353.501 206.465 353.526 206.494 353.565C206.523 353.599 206.538 353.621 206.538 353.631C206.528 353.641 206.521 353.653 206.516 353.667L206.501 353.711V353.829C206.501 353.897 206.509 353.956 206.523 354.004C206.543 354.048 206.565 354.107 206.589 354.18C206.643 354.38 206.709 354.566 206.787 354.737C206.865 354.908 206.965 355.083 207.087 355.264C207.126 355.328 207.166 355.367 207.205 355.381C207.249 355.396 207.3 355.418 207.358 355.447C207.368 355.457 207.39 355.472 207.424 355.491C207.463 355.511 207.488 355.525 207.498 355.535C207.688 355.696 207.893 355.821 208.113 355.909C208.333 355.997 208.569 356.041 208.823 356.041C208.867 356.041 208.904 356.036 208.933 356.026C208.962 356.011 208.989 355.997 209.014 355.982C209.043 355.967 209.07 355.953 209.094 355.938C209.119 355.923 209.148 355.911 209.182 355.901H209.402C209.48 355.892 209.556 355.875 209.629 355.85C209.702 355.821 209.773 355.794 209.841 355.77C209.915 355.74 209.988 355.716 210.061 355.696C210.134 355.672 210.21 355.66 210.288 355.66C210.288 355.694 210.286 355.721 210.281 355.74C210.281 355.755 210.276 355.77 210.266 355.784C210.261 355.799 210.251 355.816 210.237 355.835C210.227 355.85 210.212 355.872 210.193 355.901C210.12 356.019 210.049 356.114 209.98 356.187C209.917 356.255 209.849 356.316 209.775 356.37C209.702 356.424 209.619 356.475 209.526 356.524C209.438 356.568 209.336 356.619 209.219 356.678C209.185 356.697 209.158 356.717 209.138 356.736C209.119 356.751 209.097 356.766 209.072 356.78C209.053 356.795 209.028 356.81 208.999 356.824C208.975 356.839 208.94 356.854 208.896 356.868C208.877 356.873 208.85 356.875 208.816 356.875C208.782 356.875 208.748 356.88 208.713 356.89C208.679 356.895 208.645 356.907 208.611 356.927C208.582 356.941 208.56 356.966 208.545 357H208.062C207.744 357 207.451 356.968 207.183 356.905C206.919 356.841 206.658 356.705 206.399 356.495C206.179 356.324 205.999 356.114 205.857 355.865C205.72 355.616 205.61 355.354 205.527 355.081C205.518 355.071 205.51 355.059 205.505 355.044C205.496 355.015 205.491 354.993 205.491 354.979C205.476 354.954 205.461 354.92 205.447 354.876C205.432 354.832 205.417 354.788 205.403 354.744C205.393 354.7 205.383 354.664 205.374 354.634C205.364 354.6 205.359 354.581 205.359 354.576C205.349 354.551 205.342 354.505 205.337 354.437C205.332 354.363 205.33 354.29 205.33 354.217C205.33 354.144 205.332 354.073 205.337 354.004C205.342 353.936 205.349 353.89 205.359 353.865ZM211.606 355.696V355.682C211.611 355.657 211.616 355.623 211.621 355.579C211.626 355.535 211.631 355.491 211.636 355.447C211.641 355.403 211.646 355.364 211.65 355.33C211.655 355.291 211.658 355.269 211.658 355.264C211.663 355.23 211.667 355.188 211.672 355.14C211.682 355.086 211.697 355.035 211.716 354.986C211.736 354.932 211.76 354.888 211.79 354.854C211.819 354.815 211.858 354.795 211.907 354.795C211.936 354.795 211.958 354.798 211.973 354.803C211.987 354.808 212.004 354.827 212.024 354.861C212.043 354.915 212.056 354.974 212.061 355.037C212.07 355.096 212.087 355.154 212.112 355.213C212.112 355.223 212.117 355.24 212.126 355.264C212.141 355.284 212.153 355.301 212.163 355.315C212.212 355.418 212.266 355.535 212.324 355.667C212.383 355.794 212.446 355.918 212.515 356.041C212.588 356.163 212.668 356.275 212.756 356.377C212.849 356.475 212.954 356.543 213.071 356.583C213.081 356.592 213.11 356.597 213.159 356.597C213.203 356.597 213.25 356.595 213.298 356.59C213.347 356.585 213.379 356.583 213.394 356.583C213.398 356.583 213.425 356.592 213.474 356.612C213.523 356.626 213.557 356.634 213.577 356.634H213.628H213.665C213.816 356.604 213.953 356.563 214.075 356.509C214.202 356.456 214.309 356.387 214.397 356.304C214.485 356.221 214.553 356.121 214.602 356.004C214.651 355.882 214.675 355.738 214.675 355.572V355.352C214.666 355.333 214.648 355.296 214.624 355.242C214.604 355.184 214.583 355.123 214.558 355.059C214.534 354.996 214.509 354.937 214.485 354.883C214.465 354.83 214.451 354.793 214.441 354.773C214.397 354.695 214.343 354.629 214.28 354.576C214.216 354.517 214.148 354.468 214.075 354.429C214.001 354.385 213.926 354.346 213.848 354.312C213.77 354.278 213.696 354.246 213.628 354.217C213.604 354.217 213.582 354.209 213.562 354.195C213.547 354.19 213.535 354.183 213.525 354.173C213.521 354.163 213.499 354.146 213.459 354.122C213.42 354.097 213.398 354.085 213.394 354.085C213.374 354.085 213.333 354.08 213.269 354.07C213.206 354.056 213.169 354.043 213.159 354.034C213.14 354.024 213.108 354.009 213.064 353.99C213.025 353.97 212.981 353.948 212.932 353.924C212.883 353.899 212.837 353.877 212.793 353.858C212.754 353.833 212.725 353.814 212.705 353.799C212.676 353.78 212.632 353.753 212.573 353.719C212.52 353.685 212.466 353.65 212.412 353.616C212.363 353.582 212.317 353.553 212.273 353.528C212.234 353.504 212.214 353.492 212.214 353.492C212.136 353.438 212.068 353.36 212.009 353.257C211.956 353.15 211.912 353.06 211.877 352.986C211.868 352.957 211.855 352.923 211.841 352.884C211.826 352.845 211.812 352.806 211.797 352.767C211.782 352.728 211.77 352.696 211.76 352.671C211.75 352.642 211.746 352.625 211.746 352.62V351.807C211.746 351.797 211.75 351.775 211.76 351.741C211.775 351.707 211.785 351.68 211.79 351.661C211.809 351.626 211.836 351.575 211.87 351.507C211.904 351.438 211.938 351.37 211.973 351.302C212.007 351.233 212.036 351.172 212.061 351.119C212.09 351.065 212.107 351.033 212.112 351.023C212.146 350.965 212.188 350.918 212.236 350.884C212.285 350.85 212.334 350.818 212.383 350.789C212.437 350.76 212.485 350.73 212.529 350.701C212.578 350.667 212.62 350.625 212.654 350.577C212.673 350.572 212.705 350.564 212.749 350.555C212.798 350.545 212.849 350.535 212.903 350.525C212.961 350.516 213.013 350.506 213.057 350.496C213.105 350.486 213.14 350.481 213.159 350.481C213.169 350.481 213.191 350.474 213.225 350.459C213.264 350.44 213.286 350.43 213.291 350.43H213.525C213.535 350.425 213.547 350.42 213.562 350.416C213.572 350.411 213.582 350.406 213.591 350.401C213.606 350.396 213.618 350.394 213.628 350.394H213.701C213.857 350.394 213.987 350.408 214.089 350.438C214.192 350.467 214.309 350.513 214.441 350.577C214.446 350.577 214.465 350.582 214.5 350.591C214.539 350.596 214.563 350.604 214.573 350.613C214.602 350.628 214.629 350.647 214.653 350.672C214.678 350.696 214.702 350.723 214.727 350.752C214.751 350.777 214.775 350.799 214.8 350.818C214.829 350.838 214.861 350.848 214.895 350.848C214.929 350.848 214.961 350.838 214.99 350.818C215.02 350.799 215.046 350.777 215.071 350.752C215.095 350.723 215.12 350.699 215.144 350.679C215.173 350.66 215.208 350.65 215.247 350.65C215.364 350.65 215.442 350.711 215.481 350.833V351.097V351.338C215.476 351.5 215.469 351.668 215.459 351.844C215.449 352.015 215.413 352.178 215.349 352.334C215.339 352.369 215.325 352.388 215.305 352.393C215.291 352.398 215.271 352.4 215.247 352.4C215.203 352.4 215.149 352.366 215.085 352.298C215.022 352.225 214.961 352.142 214.902 352.049C214.849 351.951 214.8 351.854 214.756 351.756C214.712 351.658 214.685 351.58 214.675 351.521V351.441C214.661 351.353 214.631 351.282 214.587 351.229C214.543 351.17 214.49 351.121 214.426 351.082C214.368 351.043 214.302 351.009 214.229 350.979C214.16 350.945 214.089 350.914 214.016 350.884C214.011 350.884 213.984 350.87 213.936 350.84C213.887 350.811 213.853 350.794 213.833 350.789C213.823 350.799 213.809 350.806 213.789 350.811C213.774 350.816 213.757 350.821 213.738 350.826C213.723 350.831 213.711 350.833 213.701 350.833C213.56 350.901 213.43 350.962 213.313 351.016C213.196 351.07 213.096 351.136 213.013 351.214C212.93 351.292 212.864 351.39 212.815 351.507C212.766 351.619 212.742 351.766 212.742 351.946C212.742 352.068 212.769 352.171 212.822 352.254C212.876 352.332 212.942 352.4 213.02 352.459C213.103 352.513 213.193 352.564 213.291 352.613C213.394 352.657 213.489 352.703 213.577 352.752C213.669 352.815 213.762 352.879 213.855 352.942C213.948 353.001 214.048 353.045 214.155 353.074C214.209 353.089 214.27 353.106 214.338 353.125C214.407 353.145 214.475 353.167 214.543 353.191C214.612 353.216 214.678 353.243 214.741 353.272C214.805 353.301 214.856 353.331 214.895 353.36C215.154 353.55 215.354 353.782 215.496 354.056C215.642 354.329 215.715 354.629 215.715 354.957C215.715 355.142 215.684 355.33 215.62 355.521C215.557 355.706 215.479 355.884 215.386 356.055C215.137 356.392 214.827 356.634 214.456 356.78C214.084 356.927 213.694 357 213.284 357H213.21C213.201 357 213.176 356.993 213.137 356.978C213.103 356.958 213.081 356.949 213.071 356.949C213.047 356.944 213.008 356.934 212.954 356.919C212.905 356.905 212.854 356.89 212.8 356.875C212.747 356.861 212.695 356.849 212.646 356.839C212.603 356.824 212.573 356.817 212.559 356.817C212.446 356.783 212.336 356.751 212.229 356.722C212.126 356.688 212.026 356.629 211.929 356.546C211.914 356.536 211.892 356.521 211.863 356.502C211.838 356.482 211.812 356.46 211.782 356.436C211.753 356.412 211.726 356.387 211.702 356.363C211.677 356.333 211.663 356.304 211.658 356.275C211.658 356.27 211.655 356.246 211.65 356.202C211.646 356.158 211.641 356.106 211.636 356.048C211.631 355.989 211.626 355.931 211.621 355.872C211.616 355.809 211.611 355.757 211.606 355.718V355.696Z" fill="black"/>
</svg>
